<mxfile host="app.diagrams.net" modified="2021-01-31T01:52:03.575Z" agent="5.0 (Windows NT 10.0; Win64; x64) AppleWebKit/537.36 (KHTML, like Gecko) Chrome/88.0.4324.104 Safari/537.36" etag="8OfB4TIPN0gc4HOvPo8x" version="14.2.7" type="github">
  <diagram id="o43L0bjvyvKbX5xJkvwc" name="Page-1">
    <mxGraphModel dx="1447" dy="708" grid="1" gridSize="10" guides="1" tooltips="1" connect="1" arrows="1" fold="1" page="1" pageScale="1" pageWidth="1654" pageHeight="2336" math="0" shadow="0">
      <root>
        <mxCell id="0" />
        <mxCell id="1" parent="0" />
        <mxCell id="jZmmR4JSvXPie1dY2pnb-12" style="edgeStyle=orthogonalEdgeStyle;rounded=0;orthogonalLoop=1;jettySize=auto;html=1;entryX=0;entryY=0.5;entryDx=0;entryDy=0;strokeWidth=5;" parent="1" source="jZmmR4JSvXPie1dY2pnb-1" target="jZmmR4JSvXPie1dY2pnb-2" edge="1">
          <mxGeometry relative="1" as="geometry" />
        </mxCell>
        <mxCell id="jZmmR4JSvXPie1dY2pnb-1" value="&lt;b&gt;Panel Surya 400wp&lt;/b&gt;" style="rounded=0;whiteSpace=wrap;html=1;" parent="1" vertex="1">
          <mxGeometry x="20" y="140" width="120" height="60" as="geometry" />
        </mxCell>
        <mxCell id="jZmmR4JSvXPie1dY2pnb-13" style="edgeStyle=orthogonalEdgeStyle;rounded=0;orthogonalLoop=1;jettySize=auto;html=1;entryX=0;entryY=0.5;entryDx=0;entryDy=0;" parent="1" source="jZmmR4JSvXPie1dY2pnb-2" target="jZmmR4JSvXPie1dY2pnb-4" edge="1">
          <mxGeometry relative="1" as="geometry" />
        </mxCell>
        <mxCell id="jZmmR4JSvXPie1dY2pnb-66" value="" style="edgeStyle=orthogonalEdgeStyle;rounded=0;orthogonalLoop=1;jettySize=auto;html=1;dashed=1;strokeWidth=5;" parent="1" source="jZmmR4JSvXPie1dY2pnb-2" target="jZmmR4JSvXPie1dY2pnb-4" edge="1">
          <mxGeometry relative="1" as="geometry" />
        </mxCell>
        <mxCell id="jZmmR4JSvXPie1dY2pnb-68" style="edgeStyle=orthogonalEdgeStyle;rounded=0;orthogonalLoop=1;jettySize=auto;html=1;entryX=0;entryY=0.25;entryDx=0;entryDy=0;dashed=1;" parent="1" source="jZmmR4JSvXPie1dY2pnb-2" target="jZmmR4JSvXPie1dY2pnb-21" edge="1">
          <mxGeometry relative="1" as="geometry">
            <Array as="points">
              <mxPoint x="290" y="428" />
            </Array>
          </mxGeometry>
        </mxCell>
        <mxCell id="jZmmR4JSvXPie1dY2pnb-2" value="&lt;b&gt;Sensor Arus&lt;/b&gt;" style="rounded=0;whiteSpace=wrap;html=1;" parent="1" vertex="1">
          <mxGeometry x="210" y="140" width="120" height="60" as="geometry" />
        </mxCell>
        <mxCell id="jZmmR4JSvXPie1dY2pnb-65" style="edgeStyle=orthogonalEdgeStyle;rounded=0;orthogonalLoop=1;jettySize=auto;html=1;entryX=0;entryY=0.5;entryDx=0;entryDy=0;dashed=1;" parent="1" source="jZmmR4JSvXPie1dY2pnb-3" target="jZmmR4JSvXPie1dY2pnb-21" edge="1">
          <mxGeometry relative="1" as="geometry">
            <Array as="points">
              <mxPoint x="170" y="450" />
              <mxPoint x="365" y="450" />
              <mxPoint x="365" y="465" />
            </Array>
          </mxGeometry>
        </mxCell>
        <mxCell id="jZmmR4JSvXPie1dY2pnb-3" value="&lt;b&gt;Sensor Tegangan&lt;/b&gt;" style="rounded=0;whiteSpace=wrap;html=1;" parent="1" vertex="1">
          <mxGeometry x="110" y="270" width="120" height="60" as="geometry" />
        </mxCell>
        <mxCell id="jZmmR4JSvXPie1dY2pnb-14" style="edgeStyle=orthogonalEdgeStyle;rounded=0;orthogonalLoop=1;jettySize=auto;html=1;entryX=0;entryY=0.5;entryDx=0;entryDy=0;strokeWidth=5;" parent="1" source="jZmmR4JSvXPie1dY2pnb-4" target="jZmmR4JSvXPie1dY2pnb-5" edge="1">
          <mxGeometry relative="1" as="geometry" />
        </mxCell>
        <mxCell id="jZmmR4JSvXPie1dY2pnb-4" value="&lt;b&gt;DC-DC Converter&lt;/b&gt;" style="rounded=0;whiteSpace=wrap;html=1;" parent="1" vertex="1">
          <mxGeometry x="360" y="140" width="120" height="60" as="geometry" />
        </mxCell>
        <mxCell id="jZmmR4JSvXPie1dY2pnb-15" style="edgeStyle=orthogonalEdgeStyle;rounded=0;orthogonalLoop=1;jettySize=auto;html=1;entryX=0;entryY=0.5;entryDx=0;entryDy=0;strokeWidth=5;" parent="1" source="jZmmR4JSvXPie1dY2pnb-5" target="jZmmR4JSvXPie1dY2pnb-6" edge="1">
          <mxGeometry relative="1" as="geometry" />
        </mxCell>
        <mxCell id="jZmmR4JSvXPie1dY2pnb-70" style="edgeStyle=orthogonalEdgeStyle;rounded=0;orthogonalLoop=1;jettySize=auto;html=1;entryX=0.313;entryY=0;entryDx=0;entryDy=0;entryPerimeter=0;dashed=1;" parent="1" source="jZmmR4JSvXPie1dY2pnb-5" target="jZmmR4JSvXPie1dY2pnb-21" edge="1">
          <mxGeometry relative="1" as="geometry" />
        </mxCell>
        <mxCell id="jZmmR4JSvXPie1dY2pnb-5" value="&lt;b&gt;Sensor Arus&lt;/b&gt;" style="rounded=0;whiteSpace=wrap;html=1;" parent="1" vertex="1">
          <mxGeometry x="540" y="140" width="120" height="60" as="geometry" />
        </mxCell>
        <mxCell id="jZmmR4JSvXPie1dY2pnb-16" style="edgeStyle=orthogonalEdgeStyle;rounded=0;orthogonalLoop=1;jettySize=auto;html=1;entryX=0;entryY=0.5;entryDx=0;entryDy=0;strokeWidth=5;" parent="1" source="jZmmR4JSvXPie1dY2pnb-6" target="jZmmR4JSvXPie1dY2pnb-8" edge="1">
          <mxGeometry relative="1" as="geometry" />
        </mxCell>
        <mxCell id="jZmmR4JSvXPie1dY2pnb-6" value="&lt;b&gt;Relay&lt;/b&gt;" style="rounded=0;whiteSpace=wrap;html=1;" parent="1" vertex="1">
          <mxGeometry x="710" y="140" width="110" height="60" as="geometry" />
        </mxCell>
        <mxCell id="jZmmR4JSvXPie1dY2pnb-17" style="edgeStyle=orthogonalEdgeStyle;rounded=0;orthogonalLoop=1;jettySize=auto;html=1;entryX=0;entryY=0.5;entryDx=0;entryDy=0;strokeWidth=5;" parent="1" source="jZmmR4JSvXPie1dY2pnb-8" target="jZmmR4JSvXPie1dY2pnb-9" edge="1">
          <mxGeometry relative="1" as="geometry" />
        </mxCell>
        <mxCell id="jZmmR4JSvXPie1dY2pnb-19" value="" style="edgeStyle=orthogonalEdgeStyle;rounded=0;orthogonalLoop=1;jettySize=auto;html=1;strokeWidth=5;" parent="1" source="jZmmR4JSvXPie1dY2pnb-8" target="jZmmR4JSvXPie1dY2pnb-10" edge="1">
          <mxGeometry relative="1" as="geometry" />
        </mxCell>
        <mxCell id="jZmmR4JSvXPie1dY2pnb-8" value="&lt;b&gt;Baterai&lt;/b&gt;" style="rounded=0;whiteSpace=wrap;html=1;" parent="1" vertex="1">
          <mxGeometry x="870" y="140" width="110" height="60" as="geometry" />
        </mxCell>
        <mxCell id="jZmmR4JSvXPie1dY2pnb-18" style="edgeStyle=orthogonalEdgeStyle;rounded=0;orthogonalLoop=1;jettySize=auto;html=1;entryX=0;entryY=0.5;entryDx=0;entryDy=0;strokeColor=#FF0000;" parent="1" source="jZmmR4JSvXPie1dY2pnb-9" target="jZmmR4JSvXPie1dY2pnb-11" edge="1">
          <mxGeometry relative="1" as="geometry" />
        </mxCell>
        <mxCell id="jZmmR4JSvXPie1dY2pnb-9" value="&lt;b&gt;Invereter&lt;/b&gt;" style="rounded=0;whiteSpace=wrap;html=1;" parent="1" vertex="1">
          <mxGeometry x="1050" y="140" width="110" height="60" as="geometry" />
        </mxCell>
        <mxCell id="jZmmR4JSvXPie1dY2pnb-72" style="edgeStyle=orthogonalEdgeStyle;rounded=0;orthogonalLoop=1;jettySize=auto;html=1;entryX=1;entryY=0.25;entryDx=0;entryDy=0;dashed=1;" parent="1" source="jZmmR4JSvXPie1dY2pnb-10" target="jZmmR4JSvXPie1dY2pnb-21" edge="1">
          <mxGeometry relative="1" as="geometry" />
        </mxCell>
        <mxCell id="jZmmR4JSvXPie1dY2pnb-10" value="&lt;b&gt;Sensor Tegangan&lt;/b&gt;" style="rounded=0;whiteSpace=wrap;html=1;" parent="1" vertex="1">
          <mxGeometry x="870" y="270" width="110" height="60" as="geometry" />
        </mxCell>
        <mxCell id="jZmmR4JSvXPie1dY2pnb-11" value="&lt;b&gt;Beban AC&lt;/b&gt;" style="rounded=0;whiteSpace=wrap;html=1;" parent="1" vertex="1">
          <mxGeometry x="1310" y="140" width="110" height="60" as="geometry" />
        </mxCell>
        <mxCell id="jZmmR4JSvXPie1dY2pnb-20" value="" style="endArrow=classic;html=1;entryX=0.417;entryY=-0.067;entryDx=0;entryDy=0;entryPerimeter=0;strokeWidth=5;" parent="1" target="jZmmR4JSvXPie1dY2pnb-3" edge="1">
          <mxGeometry width="50" height="50" relative="1" as="geometry">
            <mxPoint x="160" y="170" as="sourcePoint" />
            <mxPoint x="280" y="130" as="targetPoint" />
          </mxGeometry>
        </mxCell>
        <mxCell id="jZmmR4JSvXPie1dY2pnb-69" style="edgeStyle=orthogonalEdgeStyle;rounded=0;orthogonalLoop=1;jettySize=auto;html=1;entryX=0.5;entryY=1;entryDx=0;entryDy=0;dashed=1;" parent="1" source="jZmmR4JSvXPie1dY2pnb-21" target="jZmmR4JSvXPie1dY2pnb-4" edge="1">
          <mxGeometry relative="1" as="geometry">
            <Array as="points">
              <mxPoint x="550" y="350" />
              <mxPoint x="420" y="350" />
            </Array>
          </mxGeometry>
        </mxCell>
        <mxCell id="jZmmR4JSvXPie1dY2pnb-71" style="edgeStyle=orthogonalEdgeStyle;rounded=0;orthogonalLoop=1;jettySize=auto;html=1;dashed=1;" parent="1" source="jZmmR4JSvXPie1dY2pnb-21" edge="1">
          <mxGeometry relative="1" as="geometry">
            <mxPoint x="760" y="210" as="targetPoint" />
            <Array as="points">
              <mxPoint x="660" y="300" />
              <mxPoint x="760" y="300" />
            </Array>
          </mxGeometry>
        </mxCell>
        <mxCell id="jZmmR4JSvXPie1dY2pnb-77" style="edgeStyle=orthogonalEdgeStyle;rounded=0;orthogonalLoop=1;jettySize=auto;html=1;entryX=0.5;entryY=0;entryDx=0;entryDy=0;dashed=1;" parent="1" source="jZmmR4JSvXPie1dY2pnb-21" target="jZmmR4JSvXPie1dY2pnb-48" edge="1">
          <mxGeometry relative="1" as="geometry">
            <Array as="points">
              <mxPoint x="520" y="600" />
              <mxPoint x="450" y="600" />
            </Array>
          </mxGeometry>
        </mxCell>
        <mxCell id="jZmmR4JSvXPie1dY2pnb-80" style="edgeStyle=orthogonalEdgeStyle;rounded=0;orthogonalLoop=1;jettySize=auto;html=1;entryX=0.5;entryY=0;entryDx=0;entryDy=0;dashed=1;" parent="1" source="jZmmR4JSvXPie1dY2pnb-21" target="jZmmR4JSvXPie1dY2pnb-52" edge="1">
          <mxGeometry relative="1" as="geometry" />
        </mxCell>
        <mxCell id="jZmmR4JSvXPie1dY2pnb-84" value="" style="edgeStyle=orthogonalEdgeStyle;rounded=0;orthogonalLoop=1;jettySize=auto;html=1;dashed=1;entryX=0;entryY=0.5;entryDx=0;entryDy=0;" parent="1" source="jZmmR4JSvXPie1dY2pnb-21" target="jZmmR4JSvXPie1dY2pnb-82" edge="1">
          <mxGeometry relative="1" as="geometry">
            <mxPoint x="900" y="465" as="targetPoint" />
          </mxGeometry>
        </mxCell>
        <mxCell id="jZmmR4JSvXPie1dY2pnb-21" value="&lt;b&gt;&lt;font face=&quot;Times New Roman&quot;&gt;MIKROKONTROLER&lt;br&gt;ARM&lt;br&gt;&lt;span lang=&quot;EN-US&quot; style=&quot;font-size: 12pt ; line-height: 115%&quot;&gt;STM32F4VGTX&lt;/span&gt;&lt;/font&gt;&lt;/b&gt;" style="rounded=0;whiteSpace=wrap;html=1;" parent="1" vertex="1">
          <mxGeometry x="500" y="390" width="320" height="150" as="geometry" />
        </mxCell>
        <mxCell id="jZmmR4JSvXPie1dY2pnb-42" style="edgeStyle=orthogonalEdgeStyle;rounded=0;orthogonalLoop=1;jettySize=auto;html=1;entryX=0;entryY=0.5;entryDx=0;entryDy=0;strokeWidth=5;" parent="1" source="jZmmR4JSvXPie1dY2pnb-43" target="jZmmR4JSvXPie1dY2pnb-45" edge="1">
          <mxGeometry relative="1" as="geometry" />
        </mxCell>
        <mxCell id="jZmmR4JSvXPie1dY2pnb-43" value="&lt;b&gt;Panel Surya 400 wp&lt;/b&gt;" style="rounded=0;whiteSpace=wrap;html=1;" parent="1" vertex="1">
          <mxGeometry x="50" y="660" width="120" height="60" as="geometry" />
        </mxCell>
        <mxCell id="jZmmR4JSvXPie1dY2pnb-44" style="edgeStyle=orthogonalEdgeStyle;rounded=0;orthogonalLoop=1;jettySize=auto;html=1;entryX=0;entryY=0.5;entryDx=0;entryDy=0;" parent="1" source="jZmmR4JSvXPie1dY2pnb-45" target="jZmmR4JSvXPie1dY2pnb-48" edge="1">
          <mxGeometry relative="1" as="geometry" />
        </mxCell>
        <mxCell id="jZmmR4JSvXPie1dY2pnb-73" value="" style="edgeStyle=orthogonalEdgeStyle;rounded=0;orthogonalLoop=1;jettySize=auto;html=1;dashed=1;strokeWidth=5;" parent="1" source="jZmmR4JSvXPie1dY2pnb-45" target="jZmmR4JSvXPie1dY2pnb-48" edge="1">
          <mxGeometry relative="1" as="geometry" />
        </mxCell>
        <mxCell id="jZmmR4JSvXPie1dY2pnb-74" style="edgeStyle=orthogonalEdgeStyle;rounded=0;orthogonalLoop=1;jettySize=auto;html=1;entryX=0;entryY=0.75;entryDx=0;entryDy=0;dashed=1;" parent="1" source="jZmmR4JSvXPie1dY2pnb-45" target="jZmmR4JSvXPie1dY2pnb-21" edge="1">
          <mxGeometry relative="1" as="geometry">
            <Array as="points">
              <mxPoint x="300" y="503" />
            </Array>
          </mxGeometry>
        </mxCell>
        <mxCell id="jZmmR4JSvXPie1dY2pnb-75" value="Text" style="edgeLabel;html=1;align=center;verticalAlign=middle;resizable=0;points=[];" parent="jZmmR4JSvXPie1dY2pnb-74" vertex="1" connectable="0">
          <mxGeometry x="-0.2168" y="-2" relative="1" as="geometry">
            <mxPoint y="1" as="offset" />
          </mxGeometry>
        </mxCell>
        <mxCell id="jZmmR4JSvXPie1dY2pnb-45" value="&lt;b&gt;Sensor Arus&lt;/b&gt;" style="rounded=0;whiteSpace=wrap;html=1;" parent="1" vertex="1">
          <mxGeometry x="240" y="660" width="120" height="60" as="geometry" />
        </mxCell>
        <mxCell id="jZmmR4JSvXPie1dY2pnb-78" style="edgeStyle=orthogonalEdgeStyle;rounded=0;orthogonalLoop=1;jettySize=auto;html=1;dashed=1;" parent="1" source="jZmmR4JSvXPie1dY2pnb-46" edge="1">
          <mxGeometry relative="1" as="geometry">
            <mxPoint x="550" y="540" as="targetPoint" />
          </mxGeometry>
        </mxCell>
        <mxCell id="jZmmR4JSvXPie1dY2pnb-46" value="&lt;b&gt;Sensor Tegangan&lt;/b&gt;" style="rounded=0;whiteSpace=wrap;html=1;" parent="1" vertex="1">
          <mxGeometry x="140" y="790" width="120" height="60" as="geometry" />
        </mxCell>
        <mxCell id="jZmmR4JSvXPie1dY2pnb-47" style="edgeStyle=orthogonalEdgeStyle;rounded=0;orthogonalLoop=1;jettySize=auto;html=1;entryX=0;entryY=0.5;entryDx=0;entryDy=0;strokeWidth=5;" parent="1" source="jZmmR4JSvXPie1dY2pnb-48" target="jZmmR4JSvXPie1dY2pnb-50" edge="1">
          <mxGeometry relative="1" as="geometry" />
        </mxCell>
        <mxCell id="jZmmR4JSvXPie1dY2pnb-48" value="&lt;b&gt;DC-DC Converter&lt;/b&gt;" style="rounded=0;whiteSpace=wrap;html=1;" parent="1" vertex="1">
          <mxGeometry x="390" y="660" width="120" height="60" as="geometry" />
        </mxCell>
        <mxCell id="jZmmR4JSvXPie1dY2pnb-49" style="edgeStyle=orthogonalEdgeStyle;rounded=0;orthogonalLoop=1;jettySize=auto;html=1;entryX=0;entryY=0.5;entryDx=0;entryDy=0;strokeWidth=5;" parent="1" source="jZmmR4JSvXPie1dY2pnb-50" target="jZmmR4JSvXPie1dY2pnb-52" edge="1">
          <mxGeometry relative="1" as="geometry" />
        </mxCell>
        <mxCell id="jZmmR4JSvXPie1dY2pnb-79" style="edgeStyle=orthogonalEdgeStyle;rounded=0;orthogonalLoop=1;jettySize=auto;html=1;entryX=0.375;entryY=1;entryDx=0;entryDy=0;entryPerimeter=0;dashed=1;" parent="1" source="jZmmR4JSvXPie1dY2pnb-50" target="jZmmR4JSvXPie1dY2pnb-21" edge="1">
          <mxGeometry relative="1" as="geometry" />
        </mxCell>
        <mxCell id="jZmmR4JSvXPie1dY2pnb-50" value="&lt;b&gt;Sensor Arus&lt;/b&gt;" style="rounded=0;whiteSpace=wrap;html=1;" parent="1" vertex="1">
          <mxGeometry x="570" y="660" width="120" height="60" as="geometry" />
        </mxCell>
        <mxCell id="jZmmR4JSvXPie1dY2pnb-51" style="edgeStyle=orthogonalEdgeStyle;rounded=0;orthogonalLoop=1;jettySize=auto;html=1;entryX=0;entryY=0.5;entryDx=0;entryDy=0;strokeWidth=5;" parent="1" source="jZmmR4JSvXPie1dY2pnb-52" target="jZmmR4JSvXPie1dY2pnb-55" edge="1">
          <mxGeometry relative="1" as="geometry" />
        </mxCell>
        <mxCell id="jZmmR4JSvXPie1dY2pnb-52" value="&lt;b&gt;Relay&lt;/b&gt;" style="rounded=0;whiteSpace=wrap;html=1;" parent="1" vertex="1">
          <mxGeometry x="740" y="660" width="110" height="60" as="geometry" />
        </mxCell>
        <mxCell id="jZmmR4JSvXPie1dY2pnb-53" style="edgeStyle=orthogonalEdgeStyle;rounded=0;orthogonalLoop=1;jettySize=auto;html=1;entryX=0;entryY=0.5;entryDx=0;entryDy=0;strokeWidth=5;" parent="1" source="jZmmR4JSvXPie1dY2pnb-55" target="jZmmR4JSvXPie1dY2pnb-57" edge="1">
          <mxGeometry relative="1" as="geometry" />
        </mxCell>
        <mxCell id="jZmmR4JSvXPie1dY2pnb-54" value="" style="edgeStyle=orthogonalEdgeStyle;rounded=0;orthogonalLoop=1;jettySize=auto;html=1;strokeWidth=5;" parent="1" source="jZmmR4JSvXPie1dY2pnb-55" target="jZmmR4JSvXPie1dY2pnb-58" edge="1">
          <mxGeometry relative="1" as="geometry" />
        </mxCell>
        <mxCell id="jZmmR4JSvXPie1dY2pnb-55" value="&lt;b&gt;Baterai&lt;/b&gt;" style="rounded=0;whiteSpace=wrap;html=1;" parent="1" vertex="1">
          <mxGeometry x="900" y="660" width="110" height="60" as="geometry" />
        </mxCell>
        <mxCell id="jZmmR4JSvXPie1dY2pnb-56" style="edgeStyle=orthogonalEdgeStyle;rounded=0;orthogonalLoop=1;jettySize=auto;html=1;entryX=0;entryY=0.5;entryDx=0;entryDy=0;strokeColor=#FF0000;" parent="1" source="jZmmR4JSvXPie1dY2pnb-57" target="jZmmR4JSvXPie1dY2pnb-59" edge="1">
          <mxGeometry relative="1" as="geometry" />
        </mxCell>
        <mxCell id="jZmmR4JSvXPie1dY2pnb-57" value="&lt;b&gt;Invereter&lt;/b&gt;" style="rounded=0;whiteSpace=wrap;html=1;" parent="1" vertex="1">
          <mxGeometry x="1080" y="660" width="110" height="60" as="geometry" />
        </mxCell>
        <mxCell id="jZmmR4JSvXPie1dY2pnb-81" style="edgeStyle=orthogonalEdgeStyle;rounded=0;orthogonalLoop=1;jettySize=auto;html=1;entryX=1;entryY=0.75;entryDx=0;entryDy=0;dashed=1;" parent="1" source="jZmmR4JSvXPie1dY2pnb-58" target="jZmmR4JSvXPie1dY2pnb-21" edge="1">
          <mxGeometry relative="1" as="geometry" />
        </mxCell>
        <mxCell id="jZmmR4JSvXPie1dY2pnb-58" value="&lt;b&gt;Sensor Tegangan&lt;/b&gt;" style="rounded=0;whiteSpace=wrap;html=1;" parent="1" vertex="1">
          <mxGeometry x="900" y="790" width="110" height="60" as="geometry" />
        </mxCell>
        <mxCell id="jZmmR4JSvXPie1dY2pnb-59" value="&lt;b&gt;Beban AC&lt;/b&gt;" style="rounded=0;whiteSpace=wrap;html=1;" parent="1" vertex="1">
          <mxGeometry x="1340" y="660" width="110" height="60" as="geometry" />
        </mxCell>
        <mxCell id="jZmmR4JSvXPie1dY2pnb-60" value="" style="endArrow=classic;html=1;entryX=0.417;entryY=-0.067;entryDx=0;entryDy=0;entryPerimeter=0;strokeWidth=5;" parent="1" target="jZmmR4JSvXPie1dY2pnb-46" edge="1">
          <mxGeometry width="50" height="50" relative="1" as="geometry">
            <mxPoint x="190" y="690" as="sourcePoint" />
            <mxPoint x="310" y="650" as="targetPoint" />
          </mxGeometry>
        </mxCell>
        <mxCell id="jZmmR4JSvXPie1dY2pnb-82" value="&lt;b&gt;Modul Wifi ESP86&lt;/b&gt;" style="rounded=0;whiteSpace=wrap;html=1;" parent="1" vertex="1">
          <mxGeometry x="1010" y="430" width="170" height="70" as="geometry" />
        </mxCell>
        <mxCell id="jZmmR4JSvXPie1dY2pnb-86" style="edgeStyle=orthogonalEdgeStyle;rounded=0;orthogonalLoop=1;jettySize=auto;html=1;entryX=1;entryY=0.5;entryDx=0;entryDy=0;dashed=1;strokeColor=#FF0000;" parent="1" source="jZmmR4JSvXPie1dY2pnb-85" target="jZmmR4JSvXPie1dY2pnb-82" edge="1">
          <mxGeometry relative="1" as="geometry" />
        </mxCell>
        <mxCell id="jZmmR4JSvXPie1dY2pnb-85" value="" style="shape=image;verticalLabelPosition=bottom;verticalAlign=top;imageAspect=0;aspect=fixed;image=data:image/png,iVBORw0KGgoAAAANSUhEUgAAAP8AAABfCAYAAAAnFBEkAAAAAXNSR0IArs4c6QAAAARnQU1BAACxjwv8YQUAAAAJcEhZcwAADsMAAA7DAcdvqGQAAHGBSURBVHhe7X0FfBZH+21xCSEBEggJCQlxT7Dgwd3dpUBxbWlpizu0hdIihRYr7u4Ul1Io7u6QEHfl3PPMvpu8hITK9/3/v3tveMJhd2dnZ2fnnfPI7OzuR/ggH+SDZEv5QP4P8kGyqXwg/wf5INlUPpD/g3yQbCofyP9BPkg2lb9J/jcKb96kIjU1+S28eZOSBiA1LW/Wkl6WMbRjM4NeXlZl6vuYV8p5C0w34E2q0fZ75I3kJVKZX45JgyH9vyFSSmxcHG7evIk///wToaGhiI+PR2RUFCIjI5GYmKjOn1H0Ouj1S05OxrNnz3DkyBE8evRIlaHqnVbXrOqr7dPL0fPrkLQskSLtwePfV3wG+csy/wIZ66cjs7z/KbKT/GvyG5M+HdJ47+8VWf1w75Jeh15eVmUa9vHcb1JZh7cgaRpSU9K3WYFMYVyvFObXIdt6vf+NyFE6RJJZ5rPnz3Hu/Hk8f/ECr4KCcPPWLbx4+RLhERGIT0hAitQzg0g9hPAJ3B9FRfHq1Su85DGCCxcu4Pbt26q+kicxMYH5RSFnJuk10n8z479UaYeMIOH1tnm3HdLLS0e6qHb9D/B2yUZ/8ptngHFOlduQrtf9r5Cd5B+TP7NGlm1joggyI4pOINUZjDpTRmR1nqxFq4N09jQY6qNDCJGxju+A9RLSCYSgCobjMl5P2rXIegZkFHW9hvxS3kuS9s7du7h77x5eh4So7dt37qhlBC1/HC24nNNYpH5JSUnKusfRaxDyP6cCEQUg3sItKo+LFy8wXTyHBObN3HvIWFu9jY3/jImnI8Xo99JEL0O2pa4GSHnMbyz69aeVZQQ5OjMY50mvrSD9zzg1HRlFS1d1MNT/fchO8h7ypzeo6uQKxoTURWvUFLqDAo3UWv6Mkl6OlidzvPuDaEg/VmAsWnlvW+uMMCZ/RujnMCZ9EvMrkHCSRz+nfn7jzpwRWquli+TXlYq49r+fPavInkD3Xrf8QvjomBgFsfxSB/1cIlIHCQeE+AJRAhH0EoT8T548QQyPu379Gq3/La5Hv3WsJlqt9N/QGCrd6C+za1JEJdLL1MrTSC+eoAbQA8yoAOSYjGXpkLNnhrfysCg93aiWaisd7xdVB8Pv/D5kJ8ma/IZOIdA7ko6MojWsBtmt4++K8THqh84C/Pdekf1pYGHGHU7w1n4j6KI6mCGvEDXtOEIXWVf7WCF9f1aQvApyHCGEfkyiirsvFj8sPFyRXxSCrMfExqYRX443FnU9hg4q5A+iwohl/nAed//+fWX9nz59oqx/WFhoWp3T6mBE9oyQ2hn/qXbIAnq5mqirIpKYrgFpCiA9n6wat0sasbkvrVwD9G3Zp0NP0/IZ11I/SvDXkt4W6W2ZEdlJsiS/ipnf6iTpDWcssmmcJOvShoIMWd8r+nF0HtKgE94Y75OMeVlEOniCtHSup1kVQ5qeX09PZmVkqe8TiAjxE8Ub4FKVI/kyge49KAvO4wTifVy6fFm5/EJ4UQTBr18r0ku8L0s5Vj9XViIeQAiVh1h7If0LKhBRBi9ePMfdu3eUEhDXX+/kycnivchYTcbfVIPUTv8T0esrSGs/A97+/SVFyJ+o8OYNkSoK4O+R/61yJaNhqae9j/zpR/xz0dslM2Qn+Qvya51Fb5iM5NesvbZMThbXWvCGrrJsC/jj8dfT8mQOKU4g+SR/khzPJYsiAYVsGtQ684lC0KEfK+uyLyOSpV5pIAm4lNhV1nW3Xsip7Usn7Dv7DNcmxyYkJtFF16yzRvLMQBedCkLceilH2kzSZKDuyNGjalBPSH/r9m1FeHH1RRGIRX+7falopAyWZdwxVXksNywsTFl+KVdG+588eYzo6Cjl/ov1l2OE+KIIdAWQRnr5fQ3KgCUa/cmWAfyPl5wOw7k1kaVQU4ifwE0ZY0hAaoooAJ5HP4DQyvl35Gd3UFC/qdr/Ti2JfyZyDWkDwRmQnSRr8iviv01+PT7W9oMdTQaeYhAaGoFnz4Lw8uVrrkcyFo0m6MqGRRIR7KCRCqGh4WkICRGE4fXrUAQHh5AMoXSFuc30YC5fBoXgOct7+jwIj5++wsPHr/CISx2Pn73C0xdBRDCevQxWyzTwuGevQpjOpQFyzIPHtIwPnuL+oyd48OipwsPHT/Ho8TM8ekJwXbYF9x88wt37D2il7+Melw8fPWY9nuN1aJgif2KiKAgqBQPhRTHo0BWADl3EOp/5/XdFXIn5xeWXW36CUBJZFIZxV5ZBvevXryti64pBh5Qh+4X8Yv1lxF/c/9jYGNy6dZO/x1P1ewnhhfjayL9Wutb53ya/SjdAUpKZJ4nXkmiEJKYJeTWRvhDP42N5UBzBcyTHISkhFslyp4Ft84aMFUihcpiAxSgoYqtSdFK/jYzkVwogbb+eQ4ds/wNhRXTyZ0R2kr9NfulI0uEEIleuXMXcufMwevQYDBo0DJ98Mhj9+w/FgAHDFPr2HYhevT5B9+690bt3f3z8cT907dorDV269Exb79btY3Q1oAvRqUsvdOjUA+07dkebdl3QolVHNGnWDs1adkDLNp3Run13tGrXFa3adkVLQbtuaNVeB4/p2BPtOn1M9EJbAyRP8zZd0KRlRzRq3h6NWF5jLptyu1mrTmjeujMh6x2I9mjSvA0aNmmJBo2ao3HTFqxDW3Ts3B2zv/8Rr4Jesx2kTTQyCJn0Tq1BS9Ohy+PHj/HHuXNq/c8LFxAVHa3cfyG/eAjqOLWXHZ3tvXr1ajRp0gRt27bF9OnTVdsb/xbiFQQHB6uBv9f0JB49eqgs/7VrVxX5daUtMK6Hoo9u/TMhv1jlJB4TT2UUS09Hge5YPAmdpJSI9A85fxRSkiJ5wTLAmIjkhCjEx0QiMS6G6/QEkngOA/l1kVU5o5QiykR6k7ESyIjMyc9y38r1N0krbWBAZsQXZCf52+QXtzeJHSAuLkFZ6m++mY2GDZuiatWaKFu2Ery9yyt4eZWDp6c/HB3dYWfnhFKlHGBv74LSpZ1RooQtihcvpSDrNjbaPicnD5TmspStI0paO6CkTRlYl3KEjS2PKemAopa2MCtSEsWKl4a1nSscXf1hV8YLVrauKFqiDOGIYlZOsCjpjOI2rihp5wHr0l6wtvdCydKeGuw8mabBhumlHLxhW8YHpR19Ye/khzIuZQl/ODj7Ej4o4+wNRxcfOLsSbj5wdfeFj18FBFSujvUbNiv3X/qRLlqnTEdmIuSXwT6Rk6dOKQLLQJ+QX47RlYaEE6IU+vbtC1NTUxQsWJDt6qVILoTXlbDklTIl9pe4X0b+hfznzv2httPd/HdrJB091TAOoNdYr7uQP5EKJlbmE8TFEwmIThAFwHCG6aKiUlISEBcThqS4MHr8kSR5PBJjIxAXFY54KrUkHpOSyLxkrX56WQp08ieyDgpMTOK2rgh0ZSBLRpBUOMbkF0UrIZd4MxrUXYb3egByYu7nuXRkJL2O7CRZkl9rTAEbm42i38oTd1fc/NGjv0ZAQDW4uXmT2K4KHh7+SgHIshTJa00iixJwcHDjfpJbpdkryLrAloS3tXWCtRCeKCXrTLeydkRxqzIoXrIMLK0cYFHCAYWL2pLkjnD1qoTSTv4kuhtMi9qjEGFazIEog8KWTjAv7ooiJdwUZF1gZukCs+IEl+ZcFinhyrLcqDDcYWntgRKlvAhPQtbdUdLWHaXsPakAfJUScHDyRGleRwVe88KffqGLrpFPRP7Pstsxj55P4vrzRuQXay/xv5BfJM2LYHvLWMCcOXNgZWUFS0tLtGzZUhFabvHp4ZfE+jLwJ0pBlMDLl7I/To34Sxgg7r5m2d8V6eh/SX4qGiF/eEwcoiXMYVHa9fDYZNYjKQZJMSGIfP0Ej+7fQkQIzylWn3VIjk9MJ786juVKGCDHyzmIBJ5DQa5Fzsk0wTvkJ4T8Wm9MJ39KCs9BiALQjtByvC2yTWQgf5bIRvK3yK93YO0HTGWcGYUhQ0bSGvnTcruhJAlanFbZwcFDrTs4uJPQznB394eFhVh6W3bi0m8tixSxgplZcVo2C8ISlsXtYFOKngKPsy6lwxVWNi4oYU0PgCimLLwzrbg3rbovrLgsRvIWtXJHESsPwhNFS3qhmLUPLGz8UMzGF0W5LihS0hvmVl4KRYii3LZguiXzFC/lhxK2/vQk/Fi2L70LHxLfl96FD2zoMdg7ihfgrTyRsuWrYNY335N46eSXPsNmeavbybqQWY3+s4OLPHn6NM3yX716VVl3gcT7Irp7LhDLfuLECdSoUQP+/v5YsGCBIrpYftkveSXml6nBEvffuXMnbf+NG9cRFPRKnVevY0ZRCt1oEFBEcqp6E8rtZx2i46lgIqMRR6uvegPLkwHEuJgIJMVH4uDOjZg5cTRmTPwKj25fpxcQT8LTIkv+RFESrCtJL8RPoPcgg8MiOvnlHPGyZLkJkkboVH4f+ZNJ+uRkGcikhyGDjMr66wpAFx6kNI9Yde7jNf0lspG8n/x6wxl1ICF/WGgk+vcbAidHDzg7ecHLswIaNWyDwYNGoWuXvhgy+HNut+JyFDoz3p4543v8MHcRRgwfjS9HT8DUKd9i3o8/Y/78JZi/YAk79jJ8+90CTJk6G+PGz8T4id9g0pQ5mD5zHiZP+wETJs/BmPHfomHTLvD2rwkv/1rw8KsJN5+acPetDXe/OkRduPnVI+oTDYhGcPVtABef+gpOXnXh6FlHwZnrLt714Eq4cZ8783n4NWS5DYj68ClbD/4V6qFC5YaoFtgM5QNYvlcASpfxhJdPBYwdN4XWWjqcoU3YTAJDv1YixBfvQMKDRBUivEmb0iukFNKKJyAW/hGttiKjEVllKQrgyy+/RNeuXZVLb6wcJK+M9kusLwN+165dU2Um0Oreu3sHzyXmZx5DYfwZpXz9dp9h+z3kVwN+RAwtfkhkjHL5xVOReQj379/Fti0bMLBfT9SrURHVy3tizoyJtPQxLFeuledgY7whawWiABLpBcREx/F4rd2kfBlDiJNQkuXGsT66AjAOARKZlzpEjfZLvVhiGvmTkuLTyK/c/39LfqmQjmwkf4v8xo2iLH9YJAb0F/K7w9enIny8K2Lu94tx6NApHD9+jhbrHDZu3Im9e4/gt99O4tKlG7h9+yFu3ryvcO/eY3V3ICg4gjFvHAlAMoTFkQRBuHzlDq7deIhbd57hzr0nuP/oFR4+CcbdBy+xadtBzPtpFRYtWY/5P6/Fj4vWYO5Pa/DDT1xfvAHzft6AH3/eyPWN+GHxJu7bgO8Xapg9fz2+m7dOYc6C9TyG+Znvx0UaFvy8yYANWEgsWLwO8xetxryFK9Gle3/G/f5wcPSEX9lKmDBxGsmvEVpE+o8a6Re3VqXINpVkeISy6jJ7T0b95V7+5StX1ECfjPRfMVh/ue0nk36EWHqZIrL+9ddfo0ePHsrlV6QlRCnoE33E5ZfJPrdv0e2OCMfrYLbhpYvcH8u8rJiUw44fz23ZF264BajLW+czQPYKjRT5uBFP8j4PicLJc5fYlgvRrG1zeJd3h38ld1QO9ECz1tVw8MhmhgphvM4okpJKwHBuEekzkVQgL1+9xvVbd5FA0scwLBDiJ3CfuP2JzK/RV9pQr4lWFx16KunP9pVbsUkKKgRII792nCZc1/uwcbpcszGyqfx98hvaSJ7qioyIwaCBQ1HGwRXeXmXhQfd+757DdD2fskNG0v2MZswZRoRyO5ydMhbR0QnsAHHcF6EQHh7NTs/10ChExySSBIkkQDSePgvBS5YRFpGAePa82ARan/g3ahnGPCFMD49ORlg0FUZUCq1SMkKjU8FTIIpmIzIeiGAIHc7t0GiAfVYhOOINgsLTERyRiuBwEjT6DaJ4TBSP4WWxbA0vX1MZPQuj4gnB1+Omw46hjI2dE3z8KmLipGmIiUknqvwvxE+kddT70sNHjzB+wkTs3LUrbdaeEPza9etqn1h9Ib8oBFEQT589U0pBlIYuYt1Hjx6N7t274+7du4q0kibEFyuvW33xAJ7Qe4iT23w3b+D6tas8WioiyiIV0VGROLB/H+bP+xFXLl9SZehiTH5dpAaSQyxwMEO8389fwUwq91adeqKkkyNMbYqghIsl/Ot4oNfnbTHj5y9w8+VZxKQGIT41DDEJYYqcuiTQe7hx8w42b92BrTt2M5RIRFRsPOLoEYkHIJBzarSXNd3up7dFRlE5eW3KCxBFIHML+Pe2aG2g4YNklKzJz0bNlPzsgNFkypDBw2Eng3WlHOHAuP8ELX5QkJA6ThH/+fNgWqvXRDCJH8sOm6gI//p1GIKDQ9WgYRCXQcFh7PxRCCd7g19HkQzhCOIylOyNIJujqBiiY5MQG5+MyJh4hEXSgoVFI5SKJJLp0fGptCAknlhe1lFiQ4kRxV2M5yXEsQ8xG6KpPKKoRASiOILCEvA8OAb3H9Ma3X6Gy9ce4c9Ld3Huwi2cPX8DF+iB3Lj9GPcevMAXX05AcavSMC9mBWdXL0X+6Gi5x601iiyF+HEyyMV6yF2RTZu3wKqkNX5atEgRX/LIwJ5M7Dn7xx+K/DIGcP3GDbZBsFIAISS0hAHSxhI2iIUfNYqhFN1+efxXSCsxvRBeiB9NZSG3+m6wDFEAsu/kiRMIYoig1SsVyUl0j5m+fNky2NnZYe2a1SyXlpJlC+QujrECkDUhvrRjPBv05Nkr+Lj/Z6jfrAv8q9SBuZ0trDzsUK5xOfQa2wVztk7Cnuur8Sj+MqjykfAmHNFJIcolT6SLH/I6BFu37UDvvv0ZQtXGjG/nUNHKQGKC8gDk3DrU2dX0YGrj1DgaGrrz0nYSQgiM6ikiZJe/FKUAmI9/Wcnb5/kgIv+C/OzEtHrDho4k6Z2VArAv7Ywjh0/TnX+Kkyf/wM6d++nuH8fTpy/YScPZ0Z/Rsr1EBF2/mNg4WsBQNclF7peHR0RxGYqLl65h777fcOfuE0X8eMaIiUmpiGFHiYiKRjg7fEg43VoSJIjHR5Ikceo+tLiPSWrwSM3GY12lG6gOTIgSSBAlwLJixZMgIqkRwumJhPA8r8NiEBwaw2Usy2VdXkfS8wjHK4YkQVwPZtqYcZNRoqSdgpW1HWbOmm0Y8JOmkVl/jL/DI9X16DMAJ0ycBA9PLxwnGWUGn8z2Ew9Abu2J9ZfrF5dfpvqK1Zc8MnAno//GHoDE/N26dVPkF4svecTNF0UgA3wPHjxQg32SLhb/8aOH9ADE5WcbMJ5PTIhXLv/vZ07D3c0VkyZO4O8XTYWQoDyCINZZFJeI/MRyVp38YTEpDJdWwt0vEF7l6iKgZnPUbdEW/T4bigWrFtLaX8GVF6dw9cVJhCY9AP068NeiIo5S4wJbt27FgAEDUbN2HTi5uNFzcsDqDZupgOV3Y+jCtpJ2SWBdUui+y0QhJNP9in+N1IhnCH9yF5EMbeKpaGNpcJLZzpkJI3oFQxdVkkZ2ritFyvaSmZLqFqmhbbO7/Cvyx5OQI0eMYszvRgXgQvK7KPLfufMIe/Ycwvr1mxn/H6X1f0ULz0554yYt3l126lg1CCZWb+eunWrmXCSJLaS5cPEqyX+IpHhMax+PJIYXsXHxePj4CWP/uyQkFUlokEJwSBDzRFAxiIfwGs9fPaVnwA6dQvdaZpop+mt/MkadzGtIpFuYQDIkSLzMThebQK+B1keW8VQMSbRywoFEGZwiJOTQkIJJU6bT8pci8W1hXcoe3343l51IBt+09ohjZ965aw/GjpuAPXv34+Ch39Claze0adsO90lOIb0MlmkdPVE9iisegLj8Yu2F/PI8vyI1O6YoBX1m4FdffaVifnlWX27tidWXfHLL7yk9BwkHpDx5qceZ06cUseUWnsT5akCPEAXw9MljNGrYAB/36omLF/7EmtWrqAgm4ujR46yfqEntJxbSq0E24hk9oyGfTYFVaX906vkpZs1didWb9uLsJSqZVyRnTAievrqJJy+vsk1fsW2j8fjpbRw9dgB9eveCm6sLilkUg0khU+TNXxAlbGxx6twFemFyi49KUw2IatOXY6Ii8OLxfVw4eQB7Vs7HsplfYcbnQ3F0924kiAfI8DAhVqYOq6qq25FxPDaKxkRuS2YUIX4894eKQmWbiUIV5Zk2VVqH/IjZVP4Z+Qnp7Al0wUd9Npo/rpdSAI5l3HD82Fl2xiCcPXsBZ86cx+PHz9T0XrHywXT99JdUxLMjhoUzln70gKR/pTr/y1fBtPxX6Q5foEKgFaSmj6f1FLf42vUruHrtEvPfwbPnD0iYR8z/mGU+xfMXD0may+xs+7j9hGWH0/rHUNPTbVR2X5SAxIIyey6R+3SQFHQvxV1MEosgkElMRhD3XV02MWPmLFgWt4KFpRW8fPxp+b9TeWSftEcSFcE3385G9Ro1MX3GLPT6uDe8vH2Y7xu69K+ZT8qiImJn0xWBxP1Hjx1TA38yFvDg4UM8JGTwT7n9hFh3sfy9evVSU3f1NBnkk20hvpBetuXW4c0b1zXLxt9Mn72nnzuGnX/CuLGoUikAvakAJo4fh1qBgZgz+3seIyEGPS1CBvdi2XRRicCtB68w7btfsXzdYRw58wCXbobi7qMIekwkI8OuYCr3R7eu4eWD20iKjcD50ycwuH8fVKsSgCLmZsiRIwfy5M2LXHnzIUeu3PAvH0CFQq+N4VEkldSr4CAahuvYsW0zZk6biMF9uqFnyzpoU9UVrcqXRrcGVXFg00Z2RfY5emqxPGe0hH3sU/cfPsG5S5dx5MQpbN+9F6vXbcCqdeuxci2xZh3WrF+PjVu2YvfefTh28iQuXr7CYx4qRSt3TsJDwxAbzb5CQ5Bd5T3kNya+QEuWDhhDCz5u7ASS3gVlHJzh4uyB06fOM/5kvE4XXpDAeE86uZD7Ol3Wu3QDY+PjEBYRSmt+H+cv/MHlQzx/+YKW/T7Xn+HBI1rEOw9J7nBERcXSZT6pnlB7+eo5fju8Hzt2bqZ3sB1nfj+GY8cPYt/+HYyt12DBgjnYsmUtFccNWs1gdmQZbdbIryOVHkEKFYB4B9rIMK9N/S8DR+Iiy3z8dAipDZeMGSS0kN+8iAVJ7UeCf6Pi+9CwCCqo52oUe9DgoRg+4lMquUgS8jlOnjqtPB6xNrroCkDKFTdfvAKZ7itLSRcFKS/zSMtLoovl//jjj5Vi0IksHoC4+XKfXyb3nGTnFmUQEx2l9mcmohSuXqGiPPwbnrNNI8JCMW7M1xg0aAitYjxu3HqAKzce4nUEwwHy4XU0cOXuK/z060HsPXEXf96OwM0XCbgbEoeH9NbuBD3HKf6GJ08eQ2SYtHkCPhs5BJ4erihSxBx58+VHrjz5Sf78yJ0nH3Jze9Dw4fTaQrBq8waMmz4etZpWR2n34nD1sUCVanZo2cQDfTuUxbD2vhjduQJmjOyKp7euaBfAn+vGtVuYP28hmrdsDVdPb1hYWcOsmAUKmBZG7vwFNBQoiDxE3oImyE+Po5CZOcyZx9KqJGxs7VDG0QkBAZXQhwp6+9ZtVGJae2dH+Vfkj4qMxsQJk+nyO6WR//czf9ICxdAFpWv+WntIJYXWJ5JxZXgkO2pMFInHuDcxlu463TCZGir3aJknllb+8dOXVAAvSIA4EiBBudKXLl/F+T/P0SM4gyNHD3J5ih7COVy8eBbHjh3E/v1yO3E71qxZjh07NuLZ0wckRAjJQRKo0WaN4AJRBnIvOClJI3/aBRlELlF/MEcH/6lcYs2LlyipyF/G0YWewLd0vROxaPES9Os/COPGT0JgzTr4adHPDFVInphYFc7I+IYoFV20mmgiZBeiS8wvg373SF5RlOIZiAiJpa3lVl+fPn0UyXViS7q4/nJvX94BqIhPZaIu4j2SrNzrSETS84qPjcG3s2ahapVqmDp9FgYP+xS/rt2MFyFRYPPjRQRw9noI1u+9hgsPWc+QZFx6EYVt5y9h/r4tmLt9JZbv2YgDJw7z94tFKH/jgCoVUNC0AD7KmQM5cuZFnnymdPmLoDgVp729PX5a8jPOXf4Trbq0QbUmAajczBt1Oviic/8AjBhdk8qoJkYN8MGYPu6YMbAC1v0wErEhj1XdIyOilLdZunQZFCpsjlxUJh/lzs1z5cRH9DAU6F18lCcPctDT+Ch3Hm07Z6405GCaKKW83G9GhVGZSmD9mrVIofV/Q6+HDavOlV3k75FfZ4GssjPr5LcvLSP9TnT9XWn5/yDxYvDbb8dw/vwFNYIdR0sv5H/05BGevXiirG403cPXoS/x9PlDrssrq+Lwgm7/vgNHsH3nQRLhsbr3H8+4MDxCxgOC6Qozxo8KYzgg1i6MCOU5zuC3Q/tw/twZPHp4l97GMwS9pAsc9hoJcVH8Hd8mvxAmNUWLf2UgLDNRlyqk18lvwPTpM2FFK2NJt79oUUvM+f5HKpEUKoFvSPhf6KGcwvwFP1FRXVBehAz4CflFAcp2ZiJekZBfyC4j/eL2S6wvSkFEt/JjxoxRc/wlvtfJL0uJXSVN3H5Zz0wkn4z2pzLu54YaOZcn7pLYBols9yuXLuGHH37Ert37sIDXMe2b7/EyNBqhsW/wODQVu048wS+bLuDnLWcxfNrPaDt8LJp+Ohz1vvgY7WYMxeS1C3Ds2p+Iio8nqS+gcHFz5MhjIGKOXCSaGZWmLWpUC0TL5s1w4Lf9WLF+JQLqkfjN/dBqSHX0nlgHH3/pj4+H2qFvvyIY2MMUn3YuhHHdbXBk/TjEBN1h3YE/zp6Hi4sHCpgUVsTPkSevRn4510cfachFkudjmEEP4CPZn4OKQdJlSeLnJulzMz23KAGiEPMN+qQfYsMjEEuPLY7ITvLPyc/4NpoknzRxMmysbWFbyl4pgBPHT9Pih2Lduo3YtWu3mluelCwDLiG4fPUi3cqrJIPcqnuNh09u49LVP/Dg8T08ffGMIcFDxmaHsHX7AVy4eJeElyfdUiGj6FGMyyKjImjNZZArGnGx3BcTgYcP7uD2resIfvUCcfQq4uNiEBEawpgwHIlxsYZbRIbYl1C3vEi0hLh4kkWbIpuZSLK6ZF6zvi5uv7W1PIxkTZfWAt+T/PH0TA79dhTPnr9UeaWecotP1mU8QKy+usVnKDejCPnl1p+49rIUZSmDX8b1knUhf0bLLyLHyb1+ucUnii0zUYN+Qn5RdupiqACpCEQBiOUXL0BNDGK73X/4CNv37MOjl8F4FZmEy/ei0PmTWfCu0gumNlVR3LkaHCvXQdkOzRA4qi26zxuKRYdW4tqTO2pgbfHSxSRlTrrdeWBuWQJmFqVRxqUcPSVP9O/TH/17f4yr1y/h07EjUb9DHVRq7YPa/f3R8svy6DDKA/2/dsXnXzvji6HW+KqXGb4b4owbR39E3Ot7aobgTz8thnUpO2W9c+VnKFGwAHIWoBLIJ5ZeLH5u5MifD7kKFEAeExO1zJGXCoDWXzwBUQgSCuRjSJCfMOG2CZXIgD59kUxPTUd2kr9PfgNSaPEk5p84YRKsSAbrkrbKAzhO8r96FYIDBw7h8JHD6j60kD+E8eDlqxdw8/YVxNEdD4uUZ/Hv4PqtCyT/XTx7+VQ9J3/qzHkcO3Eet26/oPsbTyJo1lemxspstcQEegNxBvJHRyAkOAihr4NpwUh0dvBkdsA4Wtt4ur/yOOkb1jM1MVmtJ9ESR1OrhzHeDHr5CuEkTAKtVVakETEm2kxaeBsbeS7BBhYWJTCPcadMV5V4X88lo/8xseJVyOwzuf0nYY8W3+si6+IJGN96kvOIItDf4mMssk/c/t69e6tn+mVbh9RdXH0ZU5BtwxHpEKKT9EJ2UQJaOv9XCoDtQgWQwHaVpwCjqQikDncePsDLsHCExCTj8On7cPRoDRPz6ijlWA9+FZsioG5TlG1TB3W/aonBqz7Flkvb8TzsGUKCgjBkUD/ky5sDVtaWcHL1gJNHALzL1oG7ezkMHTAEk8Z8hXsPbmLK7ImYuWQqavWshMr9vNB0XAX0n10Ln39XDeOm+WPcaCdM7G+BX772x8tra5Ac9ZQhThKGDhsJc3pdQubcJHY+00LIb1YIeU1NkKcQ43wFE+QtxPTChdVSlIAaAyDp85oUUmMDJoQpIW6/WP5Rw0fILCTRxvwRpZ2yj/x98rNTS1wk5I+LiVPkt7QojhLFS6K0XRmcPPk7wuk+RZGAao65dK5EeUlFsHLxX7x6jIioYETGvCaCEBH9CtFxjD3pDcitt+cvQ/HkGd366GSSQggip9Y6uZBEs1QRGiIjSOZwLuk20+ImkDhJYtEZbyfH0dIxZHiTSBLGJyNB7hFHxuDVs5e4e+sOLp67oJYh8ky+/OBZSDqhgG+/+Q52tqXp6ZRCSSqAnxf/oppFLLz25iKpY6pSAJrHYARDGSKyLRZbBt9kqZ8js7wikibkf2vAj+0hbSLr+lLADULi1nS8kVt+htt+zGQolSLr6rgUpVSTGA5JGVIv9ZYjXsPajcdRtyGtdIMv0KDBINQJbIfqdRuicoeaaDWzDcbsGYMTTw8jKiEUj+7cwZSvR6O8nyuqVSkP37IVUL5qEzi6VYaPd2W0bdoKq5ctwbUbf2LwF5+Q6J+iSo9yCBjijXoTyqP1OF98MtEXoyZ6K/LPoPXfOKM6Ip7vZ91lEDkETZo0R45cdNdJ4vyFTWFSxAymFkUUChUzh0lRcxQsosGkSBEN5m+jkHlRmBUpxtCtGCyKWsDMxBSzZ87CmwSGRarDGdonm0jW5DeWtM4lVoPkp0s7eZK4/aVo/YX8Doz5z6pbe3KLTj13TmsssXUcXfUXr57iVfBTEj1K3QtOSpYpvaF4EfSYHY2WnVb7ldwpeB3D42S2HBgLi2Vj+qtg3L93j/HpBVy7cgm3b17H/bt3cOvGdVy9fAkXz5/HzWvX8Oj+AwTTqkeFRVAhxCkFkJJARUJlIIiSNwkFh+Dlsxf0AKicqCxk/CIrUYQyyCx2ELlW65KlVKizdMkyraNIfyG0W2VCRm07K5EyMyN/ViL7MyV/xmNlXf0+b5M/DboSzyg8JjGJClNNjdVElhFsr8nf/II+A2dh4LC56NZrNDp27o02XduhyYBm6PtTH0zeOwHXwy4hISUaR/YfQLvmTeHhVgY1alSGta0DPYX6KGHnBzevSmjWrBVOnD6Jnzf8inLNa8KpSVl4d/dDxRHeqD3WDW3GlcGQqfaYONMB305zwqJJrjixpjOSIo/TewvCxYvXUaFCJeTMkw8FC5Pc5uYoRLIr8hcjqbmuQOKbKjA9I0j+woQ5UYQoXqwobK2tsWntGqTSC+QPknkb/X8sf5/8BghhhPzTpk5jrF+GhLBR5D9z+g81ZffRo8fYu3cv5GWSMu86JjYSa9evwoZNqxEbH4nkN3F49foxjp7Yhz8vnUVMfAyiGGvJ67qePAul55BExSB3CWQ6cCxePH+lyH/96hXcvH4V9+7cwsP793Dn1k2V9hb5X7xCJOugkz+VrvkbWmRBMrV7UnwivQR5Dt0QAxuLbBolGZNr2rTp9HCslNW3s7XHiuW/vkV0Q9O8U2RGkTKF9DreInAmIvszuv1i7f8d+Qn9Ag35xStQU32Zh7kUZOjw4csgDB09Cc07DEKj1v3QsmMvNG/XCk07NUTTAY0w9JdBmH1oFh5F3KOyj8GyRYtRzseH7nRBWNtYIU8BU9g5l6VFdoKVvSdadeqGS/zNhs6cDL+uLeHSrR4qjayLxjNqouuCShi+yAczljjh52UOWLXEC9uXVMONw3TH488gKeaZmjjm7OKJfAVNYUqrLShE8gqE/KYkfmGSXmBGxWCeAZKmYGYGc4YERcxMYcljPF2dceLIIfYVxvrJCWwAeZtA9pG/R34jkc4n5J8xfQbcXN1RirFwOvnD8eDBQ+zatYvx8GNlVYT8x08eJQ4ztgxHYkosnr96iENH9jDuv4Lg0GCEMR6/ffchrly7i/sPgvDyVaS63SdxtW4pxfWXgTq5XSVQ2/QYZD67LJPpLgjBUwghvSI/SY8UdnTp61Ra8oy5KIB3LL5kEXfdyPUzJteUyVNRlO5iSStr2Jcug5UrVyGFlv6vyJtRJH9G8utlGK/rItvvkF+OZXu8lVfWFfmzQIYQ7o0hhJPYX7yzFO6TeZHxVNbRDAFOU6n2+2w0ajZrB5+qteFWwR8OPrZwDiiFyu3KYvD8flhxdgmexj1Uc/fHfDkGrs4usLO3RclSpZArT0HkylsMOfJaIme+Iug9YhQuPHuGVqM/g0ffLij/ZV80n9sbX+wZhIUXBmLNH22x70x1nDhRDicO1sDlI50QdHU6UuLOIp4x/y8//worKzuS2wJF1GCiJUlvQWtPBVCUFj2N9GYkthmKGlCMacVo9YvqkDymhbgU8pshoJwvDcplEj+OYWKMQnaSf0Z+dh4hSAJd+29mfaPIL66wbanSaW6/vJRT7j9HRIYz5o9HSOhrNann0ZN7JHkwEpNj1fLytfN49vIJomKj1K2xx09fUAE8wdNn8hJPegPRJLQimH5qOTc7rLioabMPuVMHO7m6Vysdm4RXCoBkf8M4XHV46ey0+OqerpDfUK5OfAlnlFIwpBuTa/KkKWnkd7B3xKpV8nAMz2PIo1fhr0SRl/XUoa7JAOM0YxHyZ5zh9w75RWQ7M4hCywi5TkIpEi7lVVr603UvYyIxf9VK+NeqA4eylVHKpyJsfHxR3MMZ9gFeCOzWBF8snoDNf+7Cs7ggNUGrceNmJF8x5C9YUE3m+ShnPnyUyxQ58hVDviLWWCrTvc//iYb9P0GVwZ+gyfQvMGTlOPx4Yhq23JiKPReH4OjvbXD0YB1sXV0TF4+OROyzzSTjXURHvMSnI79k+ZZ02y0UlOVXIPlJ6sJCajNzjfCFzWBpaoYSTLPiPmtLC4WSxS1hTZS0LAIrC3MUL2qKNi0a4fmzh2wn7UEihWwkf5/8qiNJh0lV5P/xhx/h7ORiGPEvRa19msQPhzzBJ8+ZyzReNdpP8j978ZRx/zNERoepOfiyfBH0BJHyNhixPCw3mMc+fR7M/AwLgiKoBIIY5z5RnsTDBw/wgG7j08cP8ezJI+X2KzygUuE+wWMDnj56wtg/CImxCSR6slIA6ZBtEkc6v4EIsi7El1AgRZQHk7XLNaxQ5LZmZuSXwT0ReZxXe0WV2nyv6GQ3hk5q8XBk21iE/DK3Xx7eUfnEWmdGfhFJywid8GlgPgNE6Qn54/kb6ArgXtALDBk3BkWdXGHu5A1Lzwoo4VsZxbwqwqFaHTTp1x+TV/yC3RfP4nlcNA6f+h1OLh7Ila8gSZ8bOXLnRX7ToshdoCitvjksbRxx5s/L2Lx3H9oPHYJWX36Oj7+fhpk7FmLDuSU4fHMRjl+cjDNnBuHEga7YvLIjLp/6Holhf7JhXyOE9WnVvB1MTBjTs9wChcwY9xdBQXOx+gwBZBDPjFad5LcoTFKT+FaEDYlvZ2EBh5Il4WBN2FijTCnC1gq2VsWoAEwxbFAfhIe9ZGPoLxD74PZnLqojsfORJOL2r6Lra1/aAZYWJVQsfPTICfUgjwzQybx17RZUKi14FE6cOoGz535nfCjTe0Nw7cZl7D2wCxcunUfQ62BF/pi4BISGx9ALoOsZk0gvIgrBQSF4yTj+OV3Gp48fKTx78lhNT335/JnCq+fPSfaXeP3qFTtKMCLDwhFHBSSDfCoMoALQlAAJQ3IrkGjK0htIr0IGQkilrlNdLpfyj9DJL4oujfwMKfS5APpov+HQ94pOeGMIqfXQRtZ1kX1jx45Fz5491YM9/xXy858xZHRfvUlHlDr3/3n3Npp26wYzRzcUcSuH4r6BKFmhMYr6N4Zj7S5oP2Ia5qzdg6NXHiKIbbx45XoS0RJ5TYsQRVHY0gb2rr4oYmVPL8AUZZzdqbge4vsfFqBq46ZoNXQoRi+ejzVHt+HY1d24eGsLLl35BVfPz8SVUxNx5tA3eHT9ABIinvO3isfjew/g71sOBQrIi0zNkCefCWP/wihABVCIYYBG/qK0+EVo8c1RgsrBhuS3p2JwKlECbra2cC9tB3f70vB0tIenU2kqAkvYFDfD3G+nICEuhA0hd310ZB/5x26/WMf4uHisW7tODfhpA2HWOPzbUTx9+hxbtmzFkiVL1aupxfrLgxu169ZGi1Yt6NbfQkxsNFasXIax47/Cxs0bcOvObdXptdl8oVQa8sy6YfRcLCrPp+J7lqVPTImWW31piGR94tQ4gHpUk3VUFs1AemXRCYlvhfQ6ZFvFvDwuDdxWhFGXyqX8Y5Hi9lsUs1S3NZ1pEdeuWY8kGUyU/cQ/Ib8uOvEFuuXPOBYg13369Gns2bNHeVMqnXnfGfDTRdJ0ZGS5Sn83WT5kEs9rjEwCgmKB9fsvwr9OL5QJ6IKA5l+gctsJcKs/CuU6zECjwT9jwNT1+H7Vb7j0MALPI5Iw5bt5qFqnAZq07oAa9RqjQrXaCKhRlxa/DOwc3dGqQzdcvfUQw74Yi4BGLdDok8EY9v0P+PXADuw7vQNHTq3G4QPf4NCWoTiwrg/2bfgKYc/+RGzoSySxr5w7cxY2Je1QIF8h5CPy5ufSxCyN/GZFLVGsWAla8pKwLmaFUkWtSHwrOFNRe1jbwsfOHm42tnArbQ9vFxd4OZeBfcnicC1tjR2bVrGPyKw+Ubg6so/84wE/IVYSreTGDRvh5OisiC8j/kcOH8MLWulNm7bglyVL1McoY0jWq9euKvLXa1APBw4dQGhYCNZtWIMf5/+AXXt2KvLLNNig4BA8efqSYUMC5Fl5cUff6eDclokrogjSIZ+izvCjST6x7OLqGyy8wJj8GZWAArc14siCS/nHoqdOmaaUXHFLK7i5evDaNyNR7g3LfuI/JX9WEPLLbVP901ySxv80GItxuhoL0TuyEdQ+yWuAJBGK/Nwmj/EwJBVjZh9Gcc/+cK0+HjU7LEWd7mvh12oRGgzbg25TTmHYN4fw86Y/8Ph1Mm4/jUDfoaPQsGVbdOrZB/WatkSFqoEoG1ANJoWLorSTB8ZMmokjZy+jbe/BqNqqK+r0HoauY6dh4qJF+HbRbMz54UvMndUd34+rhu+/9Mf345sj6CH7Tlgw4qMjsWn9RpjRq8gvFp/kz0/rn7+QOclfFCZFLFGEpC9hZQs7GweUllfBWzvAqaQDPEqVga9tGfiVsodLCRu42jrAx80Lvq5uKGNlhXJuzjh38gj7gDwBatww2Uf+OfnZicQab960GS7Orur+d2lq15MnT9NVD8e9e/exZ+9eNVddSC3Pn6/fsB6rVq9ST/EJ+a/fuIYDB/fT3btI0gepTv702XPcu/8I8rafmBh5pDdRpWsurqHzahV4F7qIElAgeUR5GCEr8r8FOdZQnkY0/mPS9GkzlJIT8nu4e2Hb1h1KAar9xH+D/JmJpOuz+OSuhii5d/LK8ZKedu2iwIiM5Nc7tixkU7JxKXG+RLpR3L4bnIhG7Vcgp9lAlPCeDccqy+BRbyP82uxB48+vocvUW+g76Qj2nHyOaHLm5B83UKF6PZRycoMtUbhoceSnVTY1t4BlcWv4lq+MNVt245eNu1GlRVdUa98XgT0/RauRUzDxp+WY9v1sTJ36Gb6f2g0LJ1THLxPKY8nM9oh8eRmJMZFIjo/FpPETkS93fuTPW1C5/vKgUEGJ/YX85sVRtHgp2Ng6wrGMB5wcCHsPuBI+RNlSzvAvURqORegJ0BPx9y6H8l5+cKUnULNsWTy4dUO1X3aVrMkvjZJJw0jnk5lxQn5XF3mW30ktT5/6Xc3tj46Wz3eFQeapyzPiMpIvU1djZYqumviTgmRab3mgR9Ikn8T8oVQc8ty/WH3tAyHa7Twhv3JzpVP/lWbW62wMAymE3Pp6lpD8BlEkk39MnjF9pvJuhPyeHt7Yvm2nagMtHwmUrM3uMzr8vyJCdiG+PMKr2oLXkOblqPpp+Pvkl/yGTUMW9TgzV0Pi3uDYlRh4VvsWOS2+QDHPubAptwSutTcioNsRNBlzAz2+u4OvFp7H2auh/C3fYNHS1fCtVB3F7BxQlC52iVKlUZztlCdfQbrilmjdrhNOX7qFGUvWI7DLYDQeOB6tRs1Bn2nL8d2q3Vi/fT/27NiAXasn4ujK7ji3oRMu72ccHnaTYVg8IsPC0KpFS5gUKMR431SRP3+BwihYiMQ3k1F/a1jQypcqTWvu5A17e08aI2eUKGoPh+JlUMnJDw39q8POwg6mplao16oLmrRoD2tLG7Rq0AjB8rAU++K/ldSgi9g6ox3cLSzh130udrFdpGmR8gSnV41BE7dK6LvgEO7GpCLoyCz06dIbQ4YPwSfde6B350+x/Ekq4h8cx4pRdWFn6YWWI8dh3DjB1xjaKgDtfnqG1Jh7OLJkCKqVtIBL7V4YMqQvWteugZafrcH1//BRhCzJn9ah9E5mECGFWD0hv9zqE+svy0MHDyvrf+vWbfXWWnlaTZ7plwdetFdTxZDkWjkyUKbPfdfnustjsPIsfFxcvDpOLJ0+uKXeTCM/kurYUidpYilLx3vEUP90cmSAYb+CkejkF8ycoc3wk5jfy9MHO7bvUgpKl38y2p+VyPl06CJkl3YQqKm3BkUoJ9J/H2No1yT7pW5cT4OUaVjXVw1Z1As/kIzXsclYs+8hrP0mIF/pySjiMRcl/X+GW91NCOx3Cs0n30DPH29g7tbbuPU4XI37DP/0MzhQGRakUixIsqsn6QxP2Mn02SFDR+DS/ecY8e1iNB06CR2+no/uU1Zj8JxtmLV8PxYu2YKVDBEPrp2OS1v648nB/gi/vhQpkXfUdT57/Bhl/fxhaiLz8c1JfFPkyWuCArT+pkVKoCiteimx9B4V4FeuBspVqAVfvxrwIOk8HPzgbeMBjxLOMCtkDXvPypi6fDOmzl8GT9+KGNRnAKJCwugRyrSm/0CilqN5QQt02yrhg5Gk3Mec3l/ilLhVIevRyb0tVgZJw1NiLmFWwxaY81DbTr4wFr4FKmPG3fQ+hdjDWL7mrvqZkHgcw50LoNb3T7Rf8dmvaGOVFy4jj6tXnf9beQ/5NWub1rGkU6pOl05+V5JeLL+M+q9bux4rVqzE2bPn1Ii/fJhTbvuJ+y6P+sq6EESefJO0mBh5bFcsGjs0yxfyv6blf/H8BUIlxpX32BmRX1MABvdcYKhXWt3+Qozzq2N0ZHGsRkRt96yZ36jJTDLa7+3li507dv9t8huT2hjGYpwubaFDeUkG0utQA4JGedKghzhZWn65VgHPo8Ii1kGW8p4DRCE8MQ7TFh1CUc+vYOr6Lczd58LKdzHc629CgxF/oM23t9D1h/PY8HsQgiNjEfr6GWrXCVQP2cjDNjLvXpbq2XmS397WDrNmfYffbz5Ci6Hj0X3aUvSatQ7dp29Bn+nb8BUVwJx5JP+iFdi9dCLOreqGJ3t6IOHxeryJk3vvb3DxzwuwtyuNAvkLwqww436SP0cuhgAFizDEKAkrWxcSuQpq1G6ONh36ou+ALzB05CQMHjwebZp2Q62ydeFj6wuzYk5o2m80tt4OwrjFa2Hj7Ie5cxZAfVHIYJD+tcSuQiuTEui1IwP5Ux/jxwFj8TvJn3xlAsqZV8HkC+mTiGL2LMdaWn6R5MvjUbagMflTESaKybCFxFP4zDWd/Eh9grm18iJvnXl4kZbpn8vfIL/W2eTHUB2HEMJu3rxFkb8MyW9pWQLffz8Pc77/Qb3DLjSMxCe55cMW8nLImNgEtS6WX155FZ+QpLbF+qu35rBM+ZhDRGSU+g6gDHLJO+re7tx0eQldIci4gxYOGOr2F6LIxbw69OvJTCRZvBMd8jx/SXH7afn9/Mph376DJKGUoeX9K/K/dR0GSLouqm4GGOcRomcG4zzGUNemvKKMkLsYVJ4yQSpNiTKd16ae8kMMXkVFoWXPqbDw+ALFvebQA/gBTgGLUb7JOjQddgQdpv2BEUsv4+jtGIRFROPqhVOoGVgF+UxNYGVvj2IlrWmN5babOYpbFIe/jy927TyAPSeuYvKyQ5i24U/0mLwBDYcsxJBvd2P8nK1YtGgLti5fhYO/TsPF9QPx8vAIJIceZHVfslFTsXH9epZF997ERJUrrn/efCYoTKtvZeMIF49yqFKzMVp1+BjdPxmJ5u17o0X7PmjfZSDatu+L6tUao7StF8wd/NF90o/46extDJ3zC2w8y2P37oP0XsRuyu9g3Fb/UP4G+ZF8FbNrFUVucx90nrUPDzJkzUj+1IjfMWnyeqR59RnIn3jrRzQoZo6a313XPIN/KX9Jfs3qijXROqsspONv3boN7u6eJL8znJ3dcOLEGcgbeiOjJLbX3rwrRJfv7ctz+bKt4kvWXtJkO5mEYf9TZcq6KAXlEcTL21x5fqNzCgnlvBJr61AKQHVgle29osgleQ1Qv3kmx2nn0gitx/JTp05X5Jfn+X18/HH48DG2iZSj5dfzyXF6XWSplZU5iRVZmSEjjMn8T/E2+aVb6JDboDKtmUgWJGkDoKrteE46j3eevEC5mv1g5f45bLy/hXOFH+BbYxGqt2TnHrIb3SYdxpS1V3HluXwfMBzHD+xEjy7tUb5iOTRt0Ry+/v7qvYXeDIs6tuuIdq3a4fKl2/hl7RF8Pns3+k/bg/ajVqJh/3n44ocDmDV/B9Yu34ZDa9fixLrvcG3baIT8PhVvov9k9cPVHI1Z06ejWBFzmBc2hbmZGUzo/psUonKxsoMjY3x/uvo16jZH0/Y90bJbPwTUaYYKVAaBDdugXvPO8K1UF0VKecCmYl0MX7wB43eeQKvPJqBM+Wq4cOEqYqKi+SOxfVKpBHT8U/k75BeJuIwVQwJhky8nTBwbYfSmW2nkVuTPZ4cGw7SY/8uBjeHTeVUG8ueDS+sx+LJ3PXj5NsQXK84jVH7m/0D+MflFhHDbt++EJ39oR0dnegCe6u278jy7TkYdYu0FQnw9jZtppOc/JSpd8ukdWRKMRLaF/OJ1qG/jiwL4J+SXsuV3NkBxJJPjtHoIocXDkQ+TpmDy5GnqWX5ra1u4uLjj1KkzVDzp1v7/CfKnyANN8vprgXw/XzwBHsfOzxri2OlLKFftE1i7fIpS7tPgXnE2KtddhAZtV6D9wI3oO2EX5m68jOcRCXj1Mhjrlv2MHp3aoWH92ujWtTNqBwaiR7fuaNmsFRYv+BljR4/Hw/shGPHlIrTqsxBth6xDhxFr0G/ydkxedBSLlx/A3nW7cXbLBvyxaR5u7Z1GfiwG4sXl196/0LdnL/UATlHzwor8hRn3FzG3hJ2dC7y9AxBQuR78K9WGR6VacA2oCa+qdVGhdmNUrtccLhVrwsLNH3nsPFCuYx/0X7wOTl0HoTDDBJ+aDdVt5cQ4ElYe6IkPT8c/ldh1aGdWHD22ZyB/yj3MGTAB5zOMJ0Zc24CvG5dBgTyl0HXDK/VLvev2R2Hnpr1IKzHN8j9G8N6BcDPzxefHoww7/728l/xCfHm/uzw4I662dE61jwt5W49YQXt5jZeTGzXpFbry72rONKIbrYv1F0iasci2jowi5xTvQLwK8RDkKzDiWWiKJetj5TiBZsmFqBrIPxJG26eLrEuaEF9IL3ce5I09kyZNVeQvVao03Nw88ccf56kY5I6EEFvLK9u6MtDKESKLgng3btdj9zTS8oD/BvgfId1JIB1Jep6Alp7kTxbyEyns8GoMheeWerx6HYKlK3egUfMxKGk/BM5eU+FTfjoaNPsJXT5ejSGjt2LMt3uw7eh9vI5MxfXLN/D1iGEo6+4CN4dSqB5QDo3q1kbD2nXh7+WHRnUaY8/2g7h66Sl6fTIbNZt9h8DWv6B+50XoMmIl+n3xC2bMWIrFU77Blu+mYvn4AdjwTV+8uraeVX1MROPujTtoWKeuegDHopiZehtwYdPCXC/BflcBtWo1QePG7VCN1r58YAN4VqmFRm064dMvxqB12w6oWL02Sjh7ImexUnCq3hB+zbsgR2lvfFSwKJq17oio8Ai8SaJZTokDEsLS8U8lYR8+KWWCxr+EGhIMQsJ+2W8eJKxPebQeq34zUg4pj7CoMUOk9uuUdX+X/Jqkhr3EKznsLbc/Cie+8IOZ60Ds+w9Nf5bkF3dIf+edvPVGZtDpHVU69cGDv6n419a2DBWAM/44d5lxfgbtR2F3TIOQVKCTX9b1fQJ9v75tLNKv5RgJF+TlnhJKpIUN3K8fq2+LyDFCZoFmydmvCHKPnV5Llzy6qHMwXWYYxsfLZ7GS1Is6hfwlS5ZSL4/09vbDn39eVN6HkF7KFSUh22L9pQxpI/FSVJjCk+m3LY2hK4DMvIB/LerkvKjMyE+XNkU+q02I+6/cXUM95UMp02csQdt2U+Hl8xX8ys5ApSoz0KXbCgwZuh7TZu3H3J8O4Pzl54iMfINTR06hS6tW8HF0gK+zPXyc7GBnWRS2lsVhb2ULJ1sXPLrzAkcPXUXHzrNQo/4PqNZoGRq0/wVdh/6KT0YuwDdTFuHn8ZOwbcZYLP7iY/w69RO8vLWP1vc53sRE4PThEyjn4wuLIqYobmmGokUKw7RQIViS/FUq10RTEr8FXftadVugUs1G8KtSE9179cXJw0dxfO9efDbyM/iXr4xcJHvx0u4oYu2KXPks8NFHeTBiyHAkR8ewiWSuBsmfQouv4x9LKDZ3s0Hx5r/gURp3k/F400B0++aqav2Ue9+gZauFuK2HAIjAtp6OCJh0WfuFLo2Dv5D/dloB/AmDsWfGDzgp9jTxJEa6FECN2Q/VL4v4c5hU2Rz2XdYp5fJv5S/JL199lS/AJCZI59HicOno589fpAYuR1e4tPrO/pkzFyGvgM5KpEvr5BQSvw+SV4cu0q9lX0byS3rGMnUFoPbJNvF3yS/7EhLeqGnG8vooIf/EiRr5y5RxQdmyFXD58lXmkbYRwv+/Q36x/qkpCczCRlD7NUV+7ep9fPH5XDSoNxpdOq1GrRpz0aLpfEwYewBjv9yIFUtPYdWK3/DwbhgSolOwf9teVPTwhoNFMbhYFYWHjQUcixeDXTFLeJZxQxsSMyY0EetWHUGzppPRoPFKNG+3F32GHMS4b45hwdKj2LX+AK5u34qnu9fg4oafcOvwWsQ8ZbyfFIHUmBjsXL8NDja2KGJaANZWRVCsKMlvYkJPoDgCq9VBw3qtUCuwGcoy7nejJ+Do7oOeXbvhwIb1eHT2NH7buhW9u/VEnjwFUTg/j89fDBa5isCU5F81/ycSSJ7iE/Kzz76JSMe/kNTQU/i+e01UqdcevXr3Qa+uHdBz/A48kqanpNyfj96N2qJ9134YOnIkhvRug7ZDV+IGTx3/4CiWDasK81xFEdDrK8N9/i8xoKkHfIceQYLc5/+5Hz2DXChebyzWnX2ufrnE63NQu2ghuLb6Gj8ff6Kd6B/KX5Jf3H6x/PLdNUV+dhbpoPIUX6VK1VGxYjWUL18Nv5+9hJDQ6DRCZhRJElIqohLkyTtQ5OU+yatDFylT9utf1JEv7JBvCvqxivSEWvIY/XzqnPzPeFvxRKXzeLamLJOkPPYHeX+gvElIHjKStwlNmjRNeTienr6oWjUQN27cYnuQ8IS4+toMP83t15TNvyf/fyJaGaxAJuR/8yYdMvIv+yW/PKOwbetvaNLoE7g6d0TVgCnw8RiHMaOPYObUIxjzxRrM/34nNqw6iLCXcYyTkzB1zCRYFiqMQjlzwDz3R7DIlxNF8+dBsQIFYEPL/Nmwr/DicRQmjFmKBnXHomO7jejf5zi+GHEIC2efwI6Vx3Fy9Ta82LMRsUfW4uHe5Qi6cgiJ4fdZrXiEvwrC3FlzSPSiMC9cECWKm9P6002m21/EzAL+vpVQvWp9VK1Md96/Otx9KsLTtwLatWyNHb+uwLXfDuKP/fuwcfmvaFirHhxLlkZJU0sUzWUClxKlcHTnLrJOXnUuplgMlszv15F95D3kl5iQHVTe9iqdldBur2nkPnr0BGrUqIN69ZqicuVa+O67Bfhp0QosW74Wa9ZuxFoD1qzdoGHNBqxes15hFbFy9TqsWLn2LUjaKvnaCvevWavDcDwh+1euXo8NG7dg7fpNXN+A5b+uw6+rWG7aedLPsUqVp61LmtRrHY9bt24T1gq4vXHTdmzdtkdh2/a9adixcy+279iLTZt2oEePviq08fUth5o16+LOnXskMD0Pkl7aQryIdOK/TX4htxA9I3Ti/xvy63kzR2bkN4a+X8YbgOioBMz7YQWqVGqHEhaNYGvdHyUtB2BA300YOXQtPh36MyZ8tRg7Nx9BYlQyYiNj0alVexQzKQQnGxuY580D01w5YJLzI5jkzoFihc0xf+4SXL74DF07j0f9ml+if/dtGD/iLKYN340N3x7CqaUHcG7RMoRuX4LEo8vxfP9ShN0+gdSEINYrCS+fPsVwuubi5pvS8hctVhhWJUugiLx/r0gJlPOvito1m9NTaYfAms1QrmJNePsFoFa1Wlg48xscWLMGx7Zuw9WTp/DthMmoVrYiShaxhEne/KhKz+3SmdPU8Mbkl8EzHdlH3kt+TQGItWdHYUcWyCg3+y5d3+skfQ0EBNRgHFxRjb46u/jAydkH7h7liLIKbu7+cDXAxc0Pzq6+cGI+R2cvODh6wL6Mu4KsS5qzqw/z+TC/r4Kbh5+Ch6c/93nDw8sfVfgjVwiorj6XLfs8vcszVq3AfeXUtoubL8vyVpBzCeT8Hl7l4UOr4U1L4eXN/J7lVV09mS6QNB/fAFqTyqjI8gMqBcKP53BwcIWNjT08PHxRvXotRX79kV7VVFwIsiL/X+F/h/yyLeWng9nVC1g6tOsHR4dAlCzeDLYlB8CmxGC4lBmAxnQzu3ecgn49x+HM8YtIZZjz8uFT1K5SHWU9PDFiwADYlyiOoib5UaRgPpIrB5wdHXHkt99x4MBNWuY+qFt1FL7otwsLxl3EvGHbcHjmbtxetANXZ89G9MbvkXp0EYIP/oLoR3+wSmJ55W7CSzRr3gL58udDfnoUZuamKGVbSn03wdTUAlYlysC+NPuJUwWUcfKHnb0XStm5wN7GAZ2bt8LCaTOw5ZelOLf/IM7uO4AOTZrBrIAJQ4A8DGea4P6t62wiFUzznOL2yy0/A7KRvIf8mnuok19m9cmkiJhouQ+fTNf3Ll3gWnSFSXT3svDyqkDy+6KMozfhRSVA4hEurn78gbxQ2sGdP5ArrEs5o6SNE+HIdUf1o5V2cOMPKHAl5HVQ6ShN4tkzjnSiYmjboTs+/3I8Jk39BoOHjULf/kMZT7aCj38lOLp4w47l2LA8a1ueo5STWre1p2JxYnzKOpRhfWQOuCMVlJOLn4ID62tfxkuhtL0n7B084FCGSollCZx5jD3rZWvrCBcXTzRv3hoPHjxRbaA9zKORSGBM/nRoI/rvgzF5jcU43RiZlaGB+yRcI6h+CP5+aRCF8Hb5cmv2/PkbJJI/8uVxQv681VGkcA/YlxqJ8r6fo0bl4WjWYDgGfDwGD+88Q3JcPA7JXR5XNzSuUxczp0xBYOXKqFczEF7uTvhs5ECMHfsVnr8Ixuzvt8PToxNqVfoUI3qsw+wRBzGn1y/YPuwnXBg/DzenT0LMqolI3jcdQQcWIOrJedY4Vr0Q9NrNq/xN/ZArd27kpDdRqHAhFLMsDvMixVHQxIIKwQKFTOh1mDnAzKw0zIrYoWhRWxQuUAS+zp74pGNXLP9mNv7Yuh2Pjh/HpoUL0LFJIxQtlB9D+/fG07skfxKJnkLrnyqkFy/AgGwkf4v8cp9fBvxiY2IRFRmDhIQUPH78HL17D2TMH0jL6EmXuAotaiVazWpwdROrX46WlB4BLa07LawzlYADlUJpksuOhBQ4OHoqT0Asshu9BN0zEOufDl+VLvvrNWyBDp17oWuPfqhTvzlq1W0KVw9/Ep9WgJZdyG3Pc9izXEEZktyFismDXom7F70Ezwosqxy9AFp8T8aJ3pV4bqkf9xNuTJe6i8JypLKwK+2qlmXomYjVb9y4BcaMmYBnz15BPiaalCgxvRCSTfUe8mdG4KxgLJntF7xLeh3c9xb5M0IUgCZyprDwKGzevI+utBNyfGSHjz6qgPx5OqBQ/h4omKcpHKxboXrFbhg1ZCqiQqIQFxGOuTNnwMnOFs0bNsSoESPRuWMnDBk0CA0b1sEPP87EwkXzEBkTjx69Z1F5tkOVckPRrckcfN7hZ0xpNQ1rGAqcGjwO96Z+hbCFgxG+ajAebJuO6BeXaPPjEJUcha17tsPSxorEz4UcElKYFiLMqQToupuWQN58llQAVjAxsSNKoVAha5gULI48OU1QjLF9ZXqAM4Z/ihPLluPFwQMI+v0UVn03A/UC/PDTN5MR9uQOjT69DAHPhzex6chG8rfJn8wYVw1yJbITsefIxzSuXbuDhQuXM+5vQQ+gEl3mKhg67Gv8/Atj+F8Zk6/agl9XbmZcvgnLVmzE0uUbsGTZevyydJ3C0uXrmC5x+0bG/JsYm29h7L41DavWGGMLlq7gscvWcrkBPy9dy/V1WLxkjVpfwrKXsZxlci4Dlq6Q5WasXLMdq9ftxJr1O7F2/S6WvZPl7cCvq7bx3FtZhy1YtlzA/Ms3Ygnr9s23C9Ch48coRU/FwqIU6tZtjD17DuLmzXvqnQNqZJ9ckrbQQf4ZoBNfI2pmBM4KxpLZfsG7pNfBfX9BfjkDi1ADs9ExCViwYCW8vWrS8ruTPNWRJ0c75M3RGQVyNUEJs3pws6+PqWN+QEp8El6/eIIBvbrCxd4OFfz94evtg/r1G/H3b4Cu3TthzISR2LFnM0IjU+FdrhutdXN4OvVCVfcBaOk3BKNqDMWa1p/iXL/P8WzqKNyb0AwXJgTi1MIBiIu8jQghP93wsdMnIlcB7SGhHLlywqSwGfIVNOPSkgrAGjlzFUGOHEWRK1dx5Cby5rYkijB/fuTKWQBm+U3RoUZNbJk0GS+3bsbrw/tx9+AO7Fo2D+d+24nU2BD+SLTyYvmV9Te8v+/DO/wMopOfPVzB0Jkl5pf732FhMbh//zm2bt2HVq260vWnlfepgk/6fUpy7cD6jXuwYdNehY1b9mHL9oPYtvMwtu8iuNy28zemHcCWbRq27TiEnbuPYPe+40Y4hl17jqrl/oMnsWsvt/cexf5DpxT27D+BnXuOqbI0SPlHsIPlSPquvcdV2hohPMm/dsNu1mefwvqNexXWrt+DNet2Y83a3Vi6bBN+WrQaC39aidlzFmHAwM/UGEHZclXRjyGGzGV4/uI1LWYMyZNuRUWEUGweA4SE6fi3khnxBZkT3wD+Vho0JWAMHklIGezzzCtfFx4yZBSqV2sEd7dA2Ns1RMH8dUmi6sj9UXnG8WVJ3kCsWbYFidHRuPrn76gfWBW2JYsT1ihcyBR+fuVhbWNLL8od7To1U69jP3fxLswtKzNWrw2Hkk3ha9MSde3bYKBvByxt0Bsnuw/A9U/74PeB1bCvnzeu/PoVjfB9RDMGDyMZm3VshZwF8yJvIfnEFiGf1+K5CpgURcFCxZUCMClkg4IFxfW3g3lhG5gwFMiXuzAVV0EU/CgffIuXxNi2bfHHvLm4u2UdHpP0dw7vwKtLJ5Hy8h7in91Bwot7SAx+jJSwF2nITpI1+d8ZJNJEBrFCQiKV1d+2bR++/noqypcPZGwsrn5FuszlGDP70L33ToODE115utvuXgF0welqE7Iubrgz3Wx7GSdwljxlVZoxvP2qwK9cdTWPWx7bLFuhJipVrY+AKnVRPqA2/HluSZN1QcXKdVG5WgNUrdEY1Ws2Rc06LVC/UTs0btYJzVp2Rau2PdGmXS+0bf8x2nXog/Yd+2ro0BedOvdDt+4D0bPXYPToORC9+wzB1GlzsGDhMnoDq7F7z284dvx3/HnhmnpwKTPRW8sY/1YyI74gU9LrMJA/Re7UGOFt8sv+FFy+cgUtWrRAIK1kjeoNUK1KS9iUrIqCBTxRIK8jzAraI8C/Jk4f/R2x4WHYuXk9PBztUVTc8Hz5kTNHDvWVZrvSDmjWvAkGDu6NZy8f09PaRkvtyri8LGzMK8O7WCBql6yDnmXqYH6NNtjfpiuOdGuJnW18sLGTB57tXYCUqMeIT03Cq+gQuJX1Qm6TfOp9/EUsLahEisKvbAU1/lOwUDGUsCqD4iUcuXSi0ioPR4adxcxLwpz7TPOZonCu/LD6KBda+/hg5afDcebn+bi1fT2eH9uDuOt/IPzyaTw8dRBPzx/Hq2tnEXr/ahqyk7yH/Drx3xa5pRUREYd7957hwIET6NKlL4kv03y9UcpWBsp84OlVGV4+VeHjV50/WqAirZDUv3xNRdSyFWoplA+ohQqV6igIoavWaIQatZoisHazNNRr2BqNmnZAsxZd0LxVN7Rs0wNtSFxB2w6C3ujUtR+6k7C9+gxHH3oe/Qd9gcHDvsKwkePx6eeT8cVX0zFm/LeYMPl7TJ0+DzNmLcS3sxdj9vdLMffHFfhx/kos+GkNFi1mKELrv279bsybvxz9B3yKVq27UCn0xse9B2Pzlj24d/8pXlP5yVeEGQ39j0pmxBdkSnodf0H+VJJefaUnJQlbtm5Cvfq14OXljLL+PmjZvCVqUgn4eAagtI0TzEzM0aB2fTy6ew+p8bGYMWk8zAvmR76cuZA7R07k/CgnCuQvxPi7IMyLmOOrrz9XL2j5csxkFLVwZx5bWOR1hmdhHwQWK4sOxX3xXYV62NqoBTY2rI5FlWywhgog9I+teJMYgtjEeNx/8QiW9CzyFyoIF3c3VKtRQz3RV4gxvzzUY1pYyG+HSpVrozP7Xo/u/VErsD6sS9jB0swSZvkKwTRHbhRjyFDZuiRGNWmITZPG4sq65Qg9sR+JV37HCy7PrFuKi7vW4+aRXXh0/lgaspO8h/xvu7W6CPlDQ6Nx+/Yj7KZ73b59TzjQupubs/GLO6E0lYCHJ7W9bzVF/LLla5H0tagAahKiCASyrikCsdZiqQWaRa+HKtU1JVC7XkulAGS9Tr1W3G6FOvVbK0veoHF7hXoN21E5dFRWvUXr7mhNq96uYx907NIfXboPplIYio/7jkTf/qOoFEZTKYzB0OFjDRhHa/UV+g8cjQGDvsRnoyZj7LhZ7MQzMHzEGBK/GxWZeDP+CKhUC998Ow+Hj5zBLV57VJQ8xGRolP8hyYz4fxe6EtCh3QKUfVRaShmk4uDB/WjTtgWcXexhY1MCbdq0hr9fBVSqWA3VqwSiAq3tpHHjEfE6BCEvXqBn547Im/MjWJibw9tdrG0xxth0z/Pkh4VFMWzatAFPnz1Dn74DYGFZBt4e1eFk5YWK9uXR0LUKapqVRm97D0woWx7TArzxtYcFlnesjuhrx5CaEIpYKqXjf5xCYbPCKEDyu5L8ZcuVU5/Xkk9r55HPdZmYqVeEVatemx5af3Tq1B2VA6qieNHiKFrIDGZ588OESsmE5LctkA+1XMpgRJvmWDnhS1zdsgovafGfndyPG/s3486Rnbh/ch+enDuchuwk7yG/kdU38mHlcdtz565g2bK1GD78KzRv3gmVKtWj9agKN/cAkqUKCV8bFQLqoVKVhqhSrTHJ3JjkbkRiN3gLlaoK6ZmH+2W7YuV6KFdRvAC6oIFNUKtuKwVx3avVaMK0ZgpVuS6oFtiUiqG5Qs06ragMOtC974ymLbrRS+hBF188A7r0nfqhQ2d2lK4DlULo0m0QOnO9I9N69BqmFMCYsfQMJn6PSfQOZsxcgPETvsWozydi9JdTuJxAxTCeeaZh5qwfsWbtFvVdAVGE/5OSGanfh38q8vXj23du8do+5e/nibp166OkVWmU9QtA/76DiAHYu3M3Ehji/H7iBAKrVkW+XLkZ79ugScPGsLW2RW6Sv0A+E3h7eePB/fv48/x5NGvWAnZ2TmjfthvKepRHm3ot8EmrzvC3sEaVYiVQz9ISHeyt0cO+GJb1boPEB1eQGhdG8sdh7cZ1tPAmyJc/L72HorC0sFBf4cmbV/uufr58BVQY4OrmgWrVAhFQsTKcHBzpkRSi1c+PwrlzK+LnIfITVqYFUMnVAUPat8CWH2bh/La1eHhiH15dOI4g4tWfR7mejuwkf01+LsRoCOgx0uLFYv/+Y5g06Rs0bdoejWl9A0lIH58a8Paprl6j9Db5m7xF/oqVG9DNr0+LX08tZbtS1UbMo5O5hSJz9ZoaqQNrt6S1b0ML356Wvy2VQWumt1QIrC2eQFt1TPWaLVC3gXgDnegJdEZDLkUBtG7Xm6FCL4XWbXur7fYd+6FTF438bdr1UejZazh6fTxCLT/uPYKu/ie0ij0Z+w/CJ/1GMm0omrfoxFBgJMODX3H9xgM1/VdEBvn+Bff+UjIj+Pvw90Xyap6ATDJ6Rmu9evVaNGvaGnalnFG0SHGM+vQrTJsyCyePnVafODt3+gw+HzESpaysafGLoJxfOZjRDc+TKx/y5S6Axg2bqmngd2/fwaQJE1CT7rofY25XR0f069ULX40cAT9nJzStXhUVHOzgZlIADayKYdXnw/EmLIhhRQxi4mIYjn2L/AXy05vIjVy5ciF/njwwLVgQ+YT8ORlqECo9f36YmpqikEkhmOSnR0DSF8qVky5/DhQi6fPRQ8mTJwfyFsgDc5N8qF3BD7N4rk3zv8PZHevw4k+N/K8vHUf4lRNpyE6SJfnlFp/yaw3klxltkYz179DlXbFiPboz1qpNl7xOnZaoSvJ6eFaBu0dlA6rAw6saXf8a8PWvBd+yNeHjL1MwAw2oAS/f6oS2lG3Z71dOxgLqKPhTgfiVE9TivkB4eleDJ5WLlk/211FlOblWpCKR8YJmKq1cxXpUNE0YJrRFxUoNGHrUohKicqnWFFWr02sgyjNPuQp1lWKqSQVSjcd6eFaFP/NWlTQqkwB6MxUq1kZDhhjN6N00bNSWrmYDrnfEuPEzcOi307j/4AVjXO2FJUoBGNruXZE9b0Pi73Rk/peVZEZ8wfuFeeRcMvIvbr/B9dePi4yKwcVL1zFkyGewtCyFCuWrYMSwUSTzfTWzU6Z3v3z+HLu2b0fPbj1QtXJVFC5UGPnoihemuy0fNlEzQKlMYmKicf78H/hp4Ty0aNYEXTq0RdeO7eDj7oKPu3SEr6M9ytlao52/D377ZTGQIB94SUZUTBSmTJ2siJ0/Hz0KKoE8JHpOkjmHATlJ8Bw5c+CjHB8p5OR6vty5YEJlYcKlPG9gwvR8uXMgVx4qi/y56S3khLuDDaaMGopF08Zhz7IFuHV4Bx6c2IMXZw8i/NLRNGQnyZL8KYmJJL1YB+lsQGICLcTTV/jt0ElMmfKdurffiMSoS7e8Gl17X9+adPmr0fWvTJesElwIN4MS8DAQNyMk3Z3hgsCNykOHlqYdJ0tREuUq1KMSqU3C12Qebb8nvQ1Jk3WBj1I0Wh5v30B1TMVKDUn2+mpdlgJRCgJRAEL8GvQaRFF58Xx+VC4B9Ej8y1LhyMCldxVUrlIftRl61JIByPot0feTEWo+wLHj5+n+h6inDOXOn64AFGRdwUC69yLzv6zEmPDGeJ9IzJ9KgqWkJiE5JVFBYn91rCGPSFhYBJYuWc3ftCZGjvwCEeHRVBRvFPnjY2PVU56vGP/v37cffXr3gbubO0qXtsfevfuoBJMMpWgSGxuD+/fuYNOGdRj75RdoUr8uOrdrgxKFTVHT2xP9GtbHg9MnNZeSIq95n/vDXJS0LolCdP3F5c9Ly6+/FPQjWvXc3M6lJv+Q2ETevHlQkJbflIqiENdFARSkAsibK4eaHZgjX24qkTxwsCmBqV9+hm+//gyrZ0/BmQ1LcWU3Q4Bj2xFy/mAaspNkSf5EeYee4V629Kv4uCTcvHEPK5avR69eg1CzZlPUr9+ay+aoLE9X+dWi9awGZ5cA2DuUhZ29zLn2h6NzBTi6VKSFDoCLeyW40jPQCF6N61Xg7Bag9js4lYOdgz9s7f3U0t6xPMrw2FKl/ZgmzwVUZt7KzFcB1rY+Kk3WpdzSZcoRZbleSR1j71gODjxeFJA7FYUoIVcqJVkKJE08CS8qD09veh4kftlydUn8Wip0kXELgbdPNabXRJWqDegNNENdGXSkEpDlmLEzsW37QVy5elc9yixNpT8dmA661WoE3vg+e2bI/C8ryUh6HVkLz0LiC+ETk+LfQpI8aMTK6qGLPLcRHByFc+cu48SJ39WjyvKBEnHphfjJSYnsC7GIjoqkogjDjp07MPv7Oeo7DayF4XxyRmmPZHpGMTw+HmGvX+P3k8cxZdxYBAYEoAJDgI61ApHw6mU6+VnmkSNH0K59O1iQ+PJ5bXHzdfLLdN989Ary5MuH3AwD8hDiHZhSUcjXd0UBiAeQn8TPbSD/R3noOXDd18sNYz8bjvHD+mPe2E+x96fvcGbdYtzavx7BZ/emITtJluRPipfnv9mD+StKB3jy+AUOHjiKCRNmomHDNnT5m9Pqt6bL3xgVaFX9y9YlYWrAxbUyypCUnt41aPVrqHWN+JWNQDIq4ldS+3TC2lFpCKlt7PwU6WXbm0rFt2wdkrmC2nakcpE0UQRCeklzo9Lx4Plkn6eP3PcXC9+A5A4k2YX8VUl+UQCy1LbFI5E6SrooBD//2rT4DWnlG6M8PQJ/hiplGXJUkjGJyvUV6tRtSSXQXCkDGQ+QmYwHD51G8OtIRXYhj058cZrUpCgj8meO/x75FdKONYZm9TOSPyk54V3yk4cJibTacSnq82ny9KIM8ibI15GS5N2KhpCBhJXzxTJWf/r8Cb2f9HkP2hnZDlyTz39rE8VYK7aFKI07165izaJF2PgzXX4qEtVYFPlAiXzhee3atfjss8/4O1SgF2CNIkWKwKRQIUX4HAwDZCnIRS8gryE8MClYAAW4LiFAHsb7mqfAUCEvLX+hAmjYoB5GDBqAkb27Y9qQPlg9ZTT2LpiOs+sW4t6BNWnITvIetz+JPxYtBuPZyIhYnDn9JxYvWoFuXT9BFbrBYvWF/BUZP4vVL1e+Pnx8azHerwYnZ1pzwo3rZSWdxBJSunlWJ+mrkrhVSPrKBshDOTpEEYglF4vvDysbbxSxcIF5MWeUKOlFpUBvwkGsfHkuyzNPWZWnZClfla6VL2D4wXVP70BadVpzwsunZhq8GaLocKfiUMqAy2rVm6FBw46oEdiC8X49XlMdrjfnel34+lVXj4/WrtOSaU1RMaCusv7r1u/E3XvP1YM+IjrddBEiCsGN77lrt9r+Z8mf7lUI5Dxvu/wC2daU09v1FuUVn6C900BelyZTuZPlpZ+st3bLUKDlTj+H/GmpYselNSQISDLUSxd5d2BydLTmYoiWERj2y8dJHjx4gOPHj2PDhg0MAX7AsOHD0ax5c4ZoFVDCyko9mScKQBGfXoCQPw+tfW4hvcCwLuTPQa+hkLkZw0YfDB4yGIMG9sfAbh3xZY8O+GHox1g1YQT2/DgBZ9fMTUN2kqwH/JT5Eg8gGS+fBWP/3iOYPm02WjTvhPp0exs2ZLxfpzX8xVUmySpUaKSsvxfXXd3EsgbCv1x9VK3eAuUDGlEB1KV1lni9uiJ/GWchu5BfPIAq9AZolRVp6TF416KyqM0frY5ad/eqSSJTgXDdg+vuLFvWvXwZ3zOPF/N6+gjBa8PXn15IuQa02ozpy6ejLOuiw4+ehJ9/HeatzfKoLEQZUelUqcpQpkFH5qmrBi29GBLUrtOGFqgu81RE9RrN2BG7oWWrHvQQGnG9K5av2ISjx87hydPXikQZRdHw/wry65Bza1CDf+oYjbT6GZlEC695AfIMgOYZsByF9HpJ2SlvkkjwRIKk5jZNhvr8l0Ajv5TFnMksI4k54hORGksvgaRP5jIpRl4oKu8YpKIh+eW7DadPn8GWrduoWDdg5arVWPTzL5g6fQaGDBuOdh06UEnLb+YOK/EKihWjEsinxgMkDBAPoTAJL4qhIEMBdy8vTJwyBYuXLsHXY8dgcM8uGNa+GSZ2aYEfh3THmglDsH/e2DRkJ8mS/Amx8r63FLwODsXpk2exeeMOrFi2FgvnL8Okid9i6JCv0LFDX1SX0fPydRFAggtpvGnh3WlJxaoKuXxJMj+mi+vuSasr5Beii9UX0qcTv7oivjtDBQ8qEIHk9/aT42V0vqHyIvy5LihXQQbtGqNSlaYIqNxELavVaKXSJJ94IuXK11N1Evjz/Doktvf1q0lPhedh/C8DlI4MT8TaB9ZsodJd3WTOQjVl+cuVr81rqkTyN0Wnzv1pRb5G308+w6DBo/HLknVYtXoL/jh3la5yMvu09qSfsSIQwvzvk9/4T1cCmUAd864wWV2DBq0Uobvk10QrN1kRn+GEKAFuJzJVJ38isyaygCT2I3kkPJmET41LwBuBfIuRxE+Qz6mLQqBykDyhoaG4fv06jtH6Hzx0CDt27sSGjRuxZp28tGUVlq1YgeW/rsS8BQswbsJE9O7bF63btkW9BjKAWwHOrq6wsbVVqB4YiK/HjcOJM2dw5ORJzP3xR3w1fDBGdm6DL9o0wLTebTF/ZE+snTIUm2d9hm3ffaGuLLtIluSPiYphOBaPO7fuYs2q9cRGrPp1A5b8shqzv1uICeNnYvCg0WjSpBOqVZO3+UisXE+RytOrKq2w3OarSaLSwpald8B0GbX3oDWVwT6J043hTgus75OxABnws7HzVXG9hAN6nC6WWiDKRSy4jOKXpfIRRSMxfLrSSSe4wFvNQ9Ago/pSRxnUk4lJLq4V4exSXrn24uLLQJ+apcil3PIrV74WFUigcvd79hqKyVPmYt78X1XMv/jn1XRPF2PX7oNq4k9EZKw29Vc8Y4MITf6fIz8hxDcetBRPQXP7RbRySX/6FWL1SXCmGFt+RX6x6CR1AomfJOQnxOqnMi0pLh6JtP56iCm3CeVjLfI58jt376rPvB8+cgQ7d+9W2LVnj8KWbduwacsWbN66VWHDpk1KOaynkpB12Sf5fzt6FBevXEFYVBTuMpyQ/bOnTsRXn/TAsBb18HWXZpj+SXvMH9ULq6YMx4ZZn6sryy6SdcwvVj8oBOfO/om1qzcQG4nNVAAb8cPcxYr8A/p/pib5VK/eWBv4k/ifhNfIX42kk0k/JJ8fSScw3NcXvHXbj6QXyK09Ibg2Ql9ZjdbLfXxHF3ljSwU4celCiywj99o8gkAqAI3oPjyPKBx1DiH4WySXmL5KGsSKC+kFrm4s07W8Ir+HZwAJL6P89FwIX79q9BQCqdRk4K+eutXXqXNffDF6ipr7/8uStcQaKoCVWLtuC46fOKO+ViSEMSaUbP3/Q35tZN6QQ0E7g6gBjfzK3Sd08seT3DJoqMjPdboCGvn1NPY1vf7yfIK841Bu+927fx+nTp9OI/3+gwfxG5XBocOHsWffPuzYtStNKcj2wd9+w7ETJ3Dm999xnorjKj2I+w8fIiQ8HA+fPsVRehPLf5qPicMGYECzuhjRriG+7NoU0/q3x5Jxg7Fm+gfyK5H468qlK9izay82rNuM9Ws3Yd0aIf8GzJ+3BFOnfIchQ75AixadERjYhORviIoBmpX086+hIMSRW2Uyvz8j/GV+f1mx0oEKsm68LRCl4eldlcqgMgkvL9yoxG2S07ca97P8LMpW4D45vw69ThpEKbEMwsdXiC6Er8L1KkyrqtL8y1bn9dRG1WoNafEbMRxozPi/OS3/IEya/B0WLPxVPfe/bPk6rPh1PX5dScuzYQvuP3jMvi2E0OihiEGCZ0Z+jYCS659JGtEzQ6Z/BqJnAu2xY72u6ZA0Y/KrOhtgXG46+ZmPkIE+HRLvG1t+ie3fyFtShezy0RVuqzRxk1gPXeQ6RAGEkbSPHj/G9Zs3FZFPUhEIyYXwQvQTp04pZbB7715s3b5dpe/dvx9Hjx3DhUuXcJfK41VwMMJp+V9yefXadezcvAFzJn6NoR2aY2i7xhjZoRG+6t4c33/aGz+NGWyoQfaQLMkfHR2N3Tt34+dFS/Dr8tVYtuRXLP5pGeb/+DPmzF6AaVO/w+efj0fv3oPRoUMvNG/eGU2bdVJo0rQjlx3VzLjmVA7NiKbc30T2GdC4qYZGTToSHVC/YVvUrd9ae4CnbkuFWnVaIFDm7tdsxvitKZdNud0MNWs3V/vrNWjDY9uznI6qzKY8n5yruTzkkwHN5alAA6ReUj9Bk6YdjNCeae25vyPatO2mnubr1r2/WrZr3wMdOvZCv/4j1Aw/meK7cpW8CHSLegnokqUr8d3sH2ipzmpfLlKkEghxtIdpMiO/RrV/Ju8Q3hiZ/r1NeGP8HfLLgJ88BajfJeAVpUErJ71E8Qv00X4FlqGOJ+GVhReiG6A+LCpgHXSRdXH/1UtOlcehKZ9EbicxXRATF4fXoaF48OgRLl+9itO09BIeCOllrOAMY3xRFk+fP0d0LMOwxES1fPniJS6ePYNNK37BlJGDMLp3J4zo1AwjqAAm9O2IaYO7G2qRPSRL8kdFRmETLdmkCVPw6YjPMWLYZxg8cDj69R2MIYM/Vejfbzj69x+OTz4Zht4fD8bHvYegT99h6PsJ0/qNIFFGqsdi+xGfcL0v03T0+YToOwK9+8hc+mHqOXqZT9+xU1+STJ6z7432HQQfK7SjgmlPyNt1BJ0690GXrv3Qg5b44z5DWR7Pqc73GQYO+hyD6ZUYY9Dgz9MwcJDk0TBg4Kdp6D9ghMLgIaMwZKiUMUql9+k7hPUcnLZvxMiv8OVXk6gEptELmIGp077BZ6O+VE+zbd6yHUHBIcr6q4EudR9dg0Z8UQTp7r5GtX8mb5E9IzL9k3Nljozk14XJWZJfV17G5E8/i0Z+Y8g59PqpQo3BfwoGEbdfvE6J/RNIWmk/HcoDYRmylG35ynOMzDpkPl3kHLJfypD0ZCoLOb8s5fXz0ZH0Jm5dw6Et6/DTtHEY068b+resi5GdmuPzbq0MpWQPyZL88r6+c2fPY+H8RejVozc6deiCDu26oGOHbmjWtA0aN2qBRg1bom6dxmjYoAXatO6MVq0EndCypQZZb926i3omviX3tWiZDnlIRqxso8Zt0KBhawNaoX4DllmvBerUbU7IfXVB0zRImqBuveaoV785l9q6tpTpty1YTkuW2/otNGzUKg2yX0d91l2HHF+b1xNYswHd/TqoUlXcfm1ZqXJNxv7VUblKLbVfUCOwHlGX9WlIZdQN4ydMwoWLl5Wbq3e4t8mvkT6d+P9O0oieGTL508+ZOf4u+eUaRAHI3ICsyM9jDEgjPmFcrtowRgYxJr+QO5Huv9aGGokzOeQt0dsha+H1xMcg+OFt/H5gF5bPnobPe3XA8C6tMKxTC0Oe7CFZW/6IaMRGx3PJhnoVgiePn+PWzTs4cfwUFsxfjLFjJuLzUV9j7vcLsX7dVhw7egqHD5/AgQNHsWfPoXTs/Y04rN6CY4yduw5h2/b96gUZGzbK7ZwdCus37KArvU09Nrt6zWbG0hsZU29QcbUxfl0p94A3YtXqjVxfz9h7rXrbztJla9R6xvzLV6xLg+zPDEuWrsIvS1Yq/LSIIc6Cn/HDj4vw47xFmDlrDi37QLSlAmzZqgMVWHt6ESMwj8pxz94DuHX7jno4JjYuXpFFRDry21b+vyNvkT0jMvl7l/DGkBzvcpHJ3CfQLKkeuvxd8hvDuNy/En3AL9Fg9eXcmoLS6vlfE15DYuRrXD19FMuoAL77+jNMGzXUsDN7SJbkT0qkWxWbqCDr8rEOme2XIoNZ/EXlKb+EeHmdt8z11r5eI2/1TUyUH4/aNUnyaOBv+Q5oHLV1lvkOWLb2ocwUkkk+252E6OhERBkhOiaRLh/3ySe1mEcg7xaUh2zk45ryCS1jSJp84FPBkCcj4uITWYYGidsVYuIQERlDVz4cz1+8wiMqwQcPn+L+gyfqFdVR0bGK7GKhouktydeDNRKyf6V12v9qt32b7BmRyV/mpNchOf4u+RmLp3kwmZFfwGMywLjcvxIhv8T7ogB04v8dkVwCvc3168pSJE9CLGLCXuHV43t4dv8Ont67bdiZPSRL8st91wSSKTHe0Jn5K76hAhBkFFEM8tSfvMpaXvCZ9u16gr9flmCx7xXZL9DySyd8G8bl6MhK5Br+iRjnl3PJ14GlDpLMhVpXHYzrklPc0ji6qvKOQxFJ06ELc/+jv6wkjeiZIZO/zEmvQ3JkVtd0aGTS8qd7MsYw/nv7WME/EbkGfcDvLwlsJPq5tLpqeP+x3J+cSMhHO2Ro8p/W9P99eQ/52aGFzLTisv6XbfN/edtJp/onYpxfVoXw7xPJL26qdLqMIt1Q9qcT7m2o/Zn8ZSVSVpbI5C+zc6ZDcrxf0kvSyjLelr//toj1VzDU7b8FY5G2kucMUtVnukl+bmc3eS/56dlpyIz8xq36PsixmUCVb4CyomnQfnjxPNTx/0Dk98sKutX+u8iYX1WHyEpUZyJkmVEkTayZMdI6uFyr4biMyEoyy/s+GJ8rM7znspSwlLS//w3yp9Vd1o233wc9b0bwPx28VAPk99BuP0qYliIfWeW67rVlF8mS/Jm2pLFktj8zSHtmgrfIL+MJaWCHJP5vI7+OfyPSOf+b5M9KMitDYHyuzPBPRMr735aM15MZshLZpUMuVSAPGslHVwTyyLIxspN8IH8W+ED+zEXK+9+WjNeTGbIS2aVDLlXwgfyafCB/FvhA/sxFyvvflozXkxmyEtmlQy5V8IH8mnwgfxb4QP7MRcr735aM15MZshLZpUMuVfCB/JpkTf4P8kE+yP/X8oH8H+SDZFP5QP4P8kGyqXwg/wf5INlUPpD/g3yQbCofyP9BPkg2lQ/k/yAfJJvKB/J/kA+STeUD+T/IB8mm8oH8H+SDZFP5QP4P8kGyqXwg/wf5INlUPpD/g3yQbCnA/wF9hYM0E4DwewAAAABJRU5ErkJggg==" parent="1" vertex="1">
          <mxGeometry x="1310" y="417.5" width="255" height="95" as="geometry" />
        </mxCell>
        <mxCell id="jZmmR4JSvXPie1dY2pnb-87" value="Fiber Opic" style="text;html=1;strokeColor=none;fillColor=none;align=center;verticalAlign=middle;whiteSpace=wrap;rounded=0;" parent="1" vertex="1">
          <mxGeometry x="1200" y="120" width="90" height="20" as="geometry" />
        </mxCell>
        <mxCell id="jZmmR4JSvXPie1dY2pnb-89" value="" style="ellipse;whiteSpace=wrap;html=1;aspect=fixed;strokeColor=#FF0000;" parent="1" vertex="1">
          <mxGeometry x="1190" y="140" width="20" height="20" as="geometry" />
        </mxCell>
        <mxCell id="jZmmR4JSvXPie1dY2pnb-91" value="" style="ellipse;whiteSpace=wrap;html=1;aspect=fixed;strokeColor=#FF0000;" parent="1" vertex="1">
          <mxGeometry x="1210" y="660" width="20" height="20" as="geometry" />
        </mxCell>
        <mxCell id="jZmmR4JSvXPie1dY2pnb-92" value="Fiber Opic" style="text;html=1;strokeColor=none;fillColor=none;align=center;verticalAlign=middle;whiteSpace=wrap;rounded=0;" parent="1" vertex="1">
          <mxGeometry x="1240" y="660" width="90" height="20" as="geometry" />
        </mxCell>
      </root>
    </mxGraphModel>
  </diagram>
</mxfile>
